# Blender 4.5.3 LTS
# www.blender.org
o Icosphere
v 0.000000 -1.000000 0.000000
v 0.723607 -0.447220 0.525725
v -0.276388 -0.447220 0.850649
v -0.894426 -0.447216 0.000000
v -0.276388 -0.447220 -0.850649
v 0.724688 -0.447793 -0.526334
v 0.273239 0.451527 0.852546
v -0.723607 0.447220 0.525725
v -0.723607 0.447220 -0.525725
v 0.276388 0.447220 -0.850649
v 1.046288 0.530363 -0.012349
v 0.000597 1.000209 -0.000172
v -0.162456 -0.850654 0.499995
v 0.425323 -0.850654 0.309011
v 0.262869 -0.525738 0.809012
v 0.850648 -0.525736 0.000000
v 0.425323 -0.850654 -0.309011
v -0.525730 -0.850652 0.000000
v -0.688189 -0.525736 0.499997
v -0.162456 -0.850654 -0.499995
v -0.688189 -0.525736 -0.499997
v 0.262869 -0.525738 -0.809012
v 0.951058 0.000000 0.309013
v 0.971155 -0.004549 -0.315094
v 0.000000 0.000000 1.000000
v 0.587786 0.000000 0.809017
v -0.951058 0.000000 0.309013
v -0.587786 0.000000 0.809017
v -0.587786 0.000000 -0.809017
v -0.951058 0.000000 -0.309013
v 0.587566 -0.000359 -0.809436
v 0.000000 0.000000 -1.000000
v 0.861616 0.651911 0.635708
v -0.352647 0.663308 1.018311
v -0.850648 0.525736 0.000000
v -0.262869 0.525738 -0.809012
v 0.826825 0.596766 -0.651055
v 0.162456 0.850654 0.499995
v 0.534625 0.878299 0.002154
v -0.425323 0.850654 0.309011
v -0.425323 0.850654 -0.309011
v 0.164425 0.899227 -0.530338
v -0.081228 -0.925327 0.249998
v 0.574465 -0.648937 0.417368
v -0.006760 -0.486479 0.829830
v 0.787128 -0.486478 0.262863
v 0.574465 -0.648937 -0.417368
v -0.262865 -0.925326 0.000000
v -0.791308 -0.486476 0.249998
v -0.081228 -0.925327 -0.249998
v -0.482289 -0.486478 -0.675323
v 0.493238 -0.486479 -0.667368
v 0.837333 -0.223610 0.417369
v 1.005590 0.257588 -0.167457
v -0.138194 -0.223610 0.925325
v 0.430512 0.225763 0.830781
v -0.922742 -0.223608 0.154506
v -0.655696 0.223610 0.667371
v -0.432087 -0.223610 -0.829833
v -0.837333 0.223610 -0.417369
v 0.655586 -0.223789 -0.667581
v 0.138194 0.223610 -0.925325
v 0.567428 0.551719 0.744127
v -0.538127 0.555264 0.772018
v -0.787128 0.486478 -0.262863
v 0.006760 0.486479 -0.829830
v 1.038705 0.594389 -0.316343
v 0.217847 0.651091 0.676270
v 0.264023 0.930710 -0.000301
v -0.574465 0.648937 0.417368
v -0.574465 0.648937 -0.417368
v 0.228130 0.677488 -0.718029
v -0.219422 -0.648937 0.675322
v 0.212661 -0.925327 0.154506
v 0.493238 -0.486479 0.667368
v 0.787128 -0.486478 -0.262863
v 0.212661 -0.925327 -0.154506
v -0.710078 -0.648934 0.000000
v -0.482289 -0.486478 0.675323
v -0.219422 -0.648937 -0.675322
v -0.791308 -0.486476 -0.249998
v -0.006760 -0.486479 -0.829830
v 0.983554 0.256599 0.148641
v 0.843624 -0.225682 -0.420493
v 0.136619 0.225763 0.926273
v 0.655696 -0.223610 0.667371
v -0.837333 0.223610 0.417369
v -0.432087 -0.223610 0.829833
v -0.655696 0.223610 -0.667371
v -0.922742 -0.223608 -0.154506
v 0.431977 0.223430 -0.830043
v -0.138194 -0.223610 -0.925325
v 0.938833 0.582554 0.311989
v -0.039704 0.557417 0.935428
v -0.787128 0.486478 0.262863
v -0.493238 0.486479 -0.667368
v 0.520289 0.516301 -0.741890
v 0.081526 0.925432 0.249911
v 0.799054 0.719444 -0.005484
v -0.212363 0.925432 0.154419
v -0.212363 0.925432 -0.154592
v 0.081526 0.925432 -0.250084
v 0.371642 0.920517 -0.270487
v 0.702763 0.890678 -0.280478
v 0.526531 0.886792 -0.642286
v -0.131434 0.850654 -0.404503
v -0.050207 0.688196 -0.654503
v -0.344096 0.688196 -0.559012
v -0.425323 0.850654 0.000000
v -0.637985 0.688195 -0.154506
v -0.637985 0.688195 0.154506
v -0.131434 0.850654 0.404503
v -0.388985 0.756981 0.663661
v -0.095096 0.756981 0.759153
v 0.344093 0.850653 0.249998
v 0.512036 0.751283 0.567852
v 0.695811 0.754933 0.317814
v 0.857731 0.268233 -0.427549
v 0.769335 -0.000232 -0.559215
v 0.665622 0.268571 -0.683414
v -0.131434 0.262869 -0.904506
v -0.293893 0.000000 -0.904508
v -0.425327 0.262869 -0.809014
v -0.900853 0.262868 -0.154506
v -0.951058 0.000000 0.000000
v -0.900853 0.262868 0.154506
v -0.470216 0.331654 0.913664
v -0.293893 0.000000 0.904508
v -0.176323 0.331654 1.009155
v 0.724701 0.325956 0.722363
v 0.769422 0.000000 0.559015
v 0.906337 0.325956 0.472360
v 0.293783 -0.000179 -0.904718
v 0.425217 -0.263048 -0.809224
v 0.131434 -0.262869 -0.904506
v -0.769422 0.000000 -0.559015
v -0.637987 -0.262868 -0.654507
v -0.819624 -0.262868 -0.404505
v -0.769422 0.000000 0.559015
v -0.819624 -0.262868 0.404505
v -0.637987 -0.262868 0.654507
v 0.293893 0.000000 0.904508
v 0.131434 -0.262869 0.904506
v 0.425327 -0.262869 0.809014
v 0.960217 -0.002007 0.000123
v 0.900853 -0.262868 0.154506
v 0.907627 -0.265118 -0.155368
v 0.344096 -0.688196 -0.559012
v 0.131434 -0.850654 -0.404503
v 0.050207 -0.688196 -0.654503
v -0.425322 -0.688195 -0.499996
v -0.344093 -0.850653 -0.249998
v -0.606960 -0.688194 -0.249998
v -0.606960 -0.688194 0.249998
v -0.344093 -0.850653 0.249998
v -0.425322 -0.688195 0.499996
v 0.637985 -0.688195 -0.154506
v 0.637985 -0.688195 0.154506
v 0.425323 -0.850654 0.000000
v 0.050207 -0.688196 0.654503
v 0.131434 -0.850654 0.404503
v 0.344096 -0.688196 0.559012
v -0.040614 -0.962664 0.124999
v 0.649036 -0.548078 0.471547
v -0.141574 -0.466849 0.840240
v 0.755367 -0.466849 0.394294
v 0.649102 -0.548119 -0.471595
v -0.131432 -0.962663 0.000000
v -0.842867 -0.466846 0.124999
v -0.040614 -0.962664 -0.124999
v -0.379338 -0.466849 -0.762986
v 0.608423 -0.466849 -0.596547
v 0.780470 -0.335415 0.471547
v 1.035551 0.390559 -0.093119
v -0.207291 -0.335415 0.887987
v 0.351875 0.338645 0.841663
v -0.908584 -0.335412 0.077253
v -0.689652 0.335415 0.596548
v -0.354237 -0.335415 -0.840241
v -0.780470 0.335415 -0.471547
v 0.689687 -0.335561 -0.596719
v 0.207291 0.335415 -0.887987
v 0.420333 0.501623 0.798336
v -0.630867 0.501242 0.648872
v -0.755367 0.466849 -0.394294
v 0.141574 0.466849 -0.840240
v 1.014865 0.555175 -0.140595
v 0.245543 0.551309 0.764408
v 0.131880 0.962820 -0.000129
v -0.649036 0.548078 0.471547
v -0.649036 0.548078 -0.471547
v 0.253558 0.558578 -0.780046
v -0.190939 -0.749796 0.587659
v 0.318992 -0.887991 0.231759
v 0.378053 -0.506108 0.738190
v 0.818888 -0.506107 -0.131431
v 0.318992 -0.887991 -0.231759
v -0.617904 -0.749793 0.000000
v -0.585239 -0.506107 0.587660
v -0.190939 -0.749796 -0.587659
v -0.739749 -0.506106 -0.374998
v 0.128055 -0.506108 -0.819421
v 0.967306 0.128299 0.228827
v 0.919274 -0.118221 -0.372260
v 0.068310 0.112882 0.963136
v 0.621741 -0.111805 0.738194
v -0.894195 0.111805 0.363191
v -0.509936 -0.111805 0.819425
v -0.621741 0.111805 -0.738194
v -0.936900 -0.111804 -0.231759
v 0.509771 0.111536 -0.819739
v -0.069097 -0.111805 -0.962662
v 0.900225 0.617233 0.473849
v -0.196175 0.610362 0.976869
v -0.818888 0.506107 0.131431
v -0.378053 0.506108 -0.738190
v 0.661357 0.560046 -0.700444
v 0.121991 0.888043 0.374953
v 0.668105 0.799489 -0.001493
v -0.318843 0.888043 0.231715
v -0.318843 0.888043 -0.231802
v 0.121580 0.909775 -0.380640
v 0.280531 0.941663 -0.409906
v 0.819235 0.830250 -0.520814
v 0.700547 0.795611 -0.708031
v -0.278378 0.850654 -0.356757
v -0.156538 0.606967 -0.731758
v -0.303482 0.606967 -0.684012
v -0.425323 0.850654 0.154506
v -0.744317 0.606965 -0.077253
v -0.744317 0.606965 0.077253
v 0.015511 0.850654 0.452249
v -0.370816 0.710144 0.840986
v -0.223871 0.710144 0.888732
v 0.438961 0.866467 0.127037
v 0.686826 0.701597 0.601780
v 0.777645 0.701596 0.476781
v 0.836189 0.401604 -0.514367
v 0.678450 -0.000296 -0.684325
v 0.612580 0.131327 -0.732259
v -0.197152 0.394303 -0.856759
v -0.440839 0.000000 -0.856763
v -0.506556 0.131434 -0.809015
v -0.875750 0.394302 -0.077253
v -0.951058 0.000000 0.154506
v -0.925955 0.131434 0.231759
v -0.411431 0.497481 0.965987
v -0.146946 0.000000 0.952254
v -0.088162 0.165827 1.004578
v 0.793159 0.488934 0.679035
v 0.860240 0.000000 0.434014
v 0.928697 0.162978 0.390687
v 0.146891 -0.000090 -0.952359
v 0.344043 -0.394393 -0.809118
v 0.197152 -0.394303 -0.856759
v -0.860240 0.000000 -0.434014
v -0.663088 -0.394302 -0.577252
v -0.753906 -0.394302 -0.452251
v -0.678604 0.000000 0.684016
v -0.753906 -0.394302 0.452251
v -0.663088 -0.394302 0.577252
v 0.440839 0.000000 0.856763
v 0.197152 -0.394303 0.856759
v 0.344098 -0.394303 0.809013
v 0.974408 -0.004493 -0.156482
v 0.875750 -0.394302 0.077253
v 0.875762 -0.394328 -0.077248
v 0.303482 -0.606967 -0.684012
v -0.015511 -0.850654 -0.452249
v -0.056124 -0.769425 -0.577249
v -0.556756 -0.606966 -0.499997
v -0.434911 -0.850652 -0.124999
v -0.566345 -0.769423 -0.124999
v -0.647574 -0.606965 0.374998
v -0.253274 -0.850654 0.374996
v -0.293889 -0.769425 0.499996
v 0.531654 -0.769425 -0.231759
v 0.531654 -0.769425 0.231759
v 0.425323 -0.850654 0.154506
v 0.156538 -0.606967 0.731758
v 0.278378 -0.850654 0.356757
v 0.384709 -0.769425 0.434011
v -0.121842 -0.887991 0.374996
v 0.499894 -0.749796 0.363190
v 0.128055 -0.506108 0.819421
v 0.818888 -0.506107 0.131431
v 0.499894 -0.749796 -0.363190
v -0.394297 -0.887989 0.000000
v -0.739749 -0.506106 0.374998
v -0.121842 -0.887991 -0.374996
v -0.585239 -0.506107 -0.587660
v 0.378053 -0.506108 -0.738190
v 0.894195 -0.111805 0.363191
v 0.979178 0.127737 -0.237272
v -0.069097 -0.111805 0.962662
v 0.509149 0.112882 0.819899
v -0.936900 -0.111804 0.231759
v -0.621741 0.111805 0.738194
v -0.509936 -0.111805 -0.819425
v -0.894195 0.111805 -0.363191
v 0.621576 -0.112074 -0.738508
v 0.069097 0.111805 -0.962662
v 0.714522 0.601815 0.689918
v -0.445387 0.609286 0.895164
v -0.818888 0.506107 -0.131431
v -0.128055 0.506108 -0.819421
v 0.982921 0.623401 -0.503537
v 0.190151 0.750872 0.588133
v 0.400834 0.915133 0.000519
v -0.499894 0.749796 0.363190
v -0.499894 0.749796 -0.363190
v 0.199489 0.810576 -0.652084
v -0.247905 -0.548078 0.762986
v 0.106331 -0.962664 0.077253
v 0.608423 -0.466849 0.596547
v 0.757221 -0.467785 -0.395259
v 0.106331 -0.962664 -0.077253
v -0.802252 -0.548075 0.000000
v -0.379338 -0.466849 0.762986
v -0.247905 -0.548078 -0.762986
v -0.842867 -0.466846 -0.124999
v -0.141574 -0.466849 -0.840240
v 1.011610 0.386756 0.068143
v 0.783161 -0.336636 -0.472961
v 0.204929 0.338645 0.889409
v 0.689652 -0.335415 0.596548
v -0.780470 0.335415 0.471547
v -0.354237 -0.335415 0.840241
v -0.689652 0.335415 -0.596548
v -0.908584 -0.335412 -0.077253
v 0.354182 0.335325 -0.840346
v -0.207291 -0.335415 -0.887987
v 0.986458 0.551984 0.151781
v 0.116767 0.504472 0.893987
v -0.755367 0.466849 0.394294
v -0.608423 0.466849 -0.596547
v 0.393947 0.481033 -0.790021
v 0.041061 0.962821 0.124869
v 0.936945 0.640167 -0.007034
v -0.105883 0.962821 0.077124
v -0.105883 0.962821 -0.077382
v 0.041061 0.962821 -0.125128
v 0.450270 0.898220 -0.132814
v 0.609605 0.853758 -0.152573
v 0.327451 0.862035 -0.569537
v 0.015511 0.850654 -0.452249
v 0.056124 0.769425 -0.577249
v -0.384709 0.769425 -0.434011
v -0.425323 0.850654 -0.154506
v -0.531654 0.769425 -0.231759
v -0.531654 0.769425 0.231759
v -0.278378 0.850654 0.356757
v -0.407154 0.803818 0.486336
v 0.033680 0.803818 0.629574
v 0.253274 0.850654 0.374996
v 0.337246 0.800969 0.533924
v 0.617596 0.818873 0.160143
v 0.900021 0.133443 -0.365348
v 0.860903 -0.000218 -0.434518
v 0.721221 0.412000 -0.637411
v -0.065717 0.131434 -0.952253
v -0.146946 0.000000 -0.952254
v -0.344098 0.394303 -0.809013
v -0.925955 0.131434 -0.231759
v -0.951058 0.000000 -0.154506
v -0.875750 0.394302 0.077253
v -0.529001 0.165827 0.861340
v -0.440839 0.000000 0.856763
v -0.264485 0.497481 1.013733
v 0.656243 0.162978 0.765690
v 0.678604 0.000000 0.684016
v 0.883977 0.488934 0.554034
v 0.440674 -0.000269 -0.857077
v 0.506392 -0.131704 -0.809330
v 0.065717 -0.131434 -0.952253
v -0.678604 0.000000 -0.684016
v -0.612887 -0.131434 -0.731762
v -0.885341 -0.131434 -0.356759
v -0.860240 0.000000 0.434014
v -0.885341 -0.131434 0.356759
v -0.612887 -0.131434 0.731762
v 0.146946 0.000000 0.952254
v 0.065717 -0.131434 0.952253
v 0.506556 -0.131434 0.809015
v 0.951069 -0.000026 0.154511
v 0.925955 -0.131434 0.231759
v 0.968047 -0.142965 -0.242684
v 0.384709 -0.769425 -0.434011
v 0.278378 -0.850654 -0.356757
v 0.156538 -0.606967 -0.731758
v -0.293889 -0.769425 -0.499996
v -0.253274 -0.850654 -0.374996
v -0.647574 -0.606965 -0.374998
v -0.566345 -0.769423 0.124999
v -0.434911 -0.850652 0.124999
v -0.556756 -0.606966 0.499997
v 0.744317 -0.606965 -0.077253
v 0.744317 -0.606965 0.077253
v 0.425323 -0.850654 -0.154506
v -0.056124 -0.769425 0.577249
v -0.015511 -0.850654 0.452249
v 0.303482 -0.606967 0.684012
v 0.418667 -0.587337 0.613190
v 0.459280 -0.668566 0.488190
v 0.533852 -0.567708 0.542368
v 0.197151 -0.688196 0.606758
v 0.090820 -0.769425 0.529503
v 0.237765 -0.769425 0.481757
v -0.113091 -0.567708 0.752576
v -0.084608 -0.668567 0.664913
v 0.021724 -0.587337 0.742167
v 0.318992 -0.887991 -0.077253
v 0.318992 -0.887991 0.077253
v 0.212661 -0.925327 0.000000
v 0.531654 -0.769425 -0.077253
v 0.637985 -0.688195 0.000000
v 0.531654 -0.769425 0.077253
v 0.680796 -0.567707 -0.340115
v 0.712556 -0.587336 -0.208684
v 0.606225 -0.668566 -0.285937
v -0.453806 -0.587337 0.587660
v -0.322372 -0.668566 0.587659
v -0.350855 -0.567708 0.675323
v -0.516141 -0.688195 0.374997
v -0.475526 -0.769423 0.249998
v -0.384708 -0.769424 0.374997
v -0.750693 -0.567705 0.124999
v -0.658519 -0.668564 0.124999
v -0.699134 -0.587335 0.249998
v -0.699134 -0.587335 -0.249998
v -0.658519 -0.668564 -0.124999
v -0.750693 -0.567705 -0.124999
v -0.516141 -0.688195 -0.374997
v -0.384708 -0.769424 -0.374997
v -0.475526 -0.769423 -0.249998
v -0.350855 -0.567708 -0.675323
v -0.322372 -0.668566 -0.587659
v -0.453806 -0.587337 -0.587660
v 0.021724 -0.587337 -0.742167
v -0.084608 -0.668567 -0.664913
v -0.113091 -0.567708 -0.752576
v 0.197151 -0.688196 -0.606758
v 0.237765 -0.769425 -0.481757
v 0.090820 -0.769425 -0.529503
v 0.533852 -0.567708 -0.542368
v 0.459280 -0.668566 -0.488190
v 0.418667 -0.587337 -0.613190
v 0.883765 -0.248201 -0.291184
v 0.845291 -0.375301 -0.209101
v 0.817000 -0.357030 -0.342041
v 0.940263 -0.135352 -0.078020
v 0.925967 -0.131460 0.077258
v 0.900864 -0.262894 0.000005
v 0.997453 0.255085 -0.005798
v 0.973646 0.127377 0.074540
v 0.985946 0.125412 -0.080259
v 0.540512 -0.243239 0.738193
v 0.459283 -0.374674 0.738191
v 0.574467 -0.355044 0.667370
v 0.359610 -0.131434 0.856761
v 0.212664 -0.131434 0.904507
v 0.278381 -0.262869 0.856760
v 0.283566 0.225763 0.878527
v 0.215256 0.112882 0.915391
v 0.362202 0.112882 0.867645
v -0.535037 -0.243239 0.742170
v -0.560138 -0.374673 0.664915
v -0.457188 -0.355044 0.752578
v -0.703705 -0.131434 0.606761
v -0.794523 -0.131434 0.481760
v -0.728806 -0.262868 0.529506
v -0.746515 0.223610 0.542370
v -0.803377 0.111805 0.488192
v -0.712559 0.111805 0.613193
v -0.871183 -0.243238 -0.279506
v -0.805466 -0.374672 -0.327252
v -0.857025 -0.355042 -0.202252
v -0.794523 -0.131434 -0.481760
v -0.703705 -0.131434 -0.606761
v -0.728806 -0.262868 -0.529506
v -0.746515 0.223610 -0.542370
v -0.712559 0.111805 -0.613193
v -0.803377 0.111805 -0.488192
v -0.003380 -0.243239 -0.914915
v 0.062337 -0.374674 -0.867168
v -0.072477 -0.355044 -0.877577
v 0.212609 -0.131524 -0.904612
v 0.359500 -0.131614 -0.856971
v 0.278326 -0.262959 -0.856865
v 0.285085 0.223520 -0.877684
v 0.362880 0.111625 -0.867380
v 0.215988 0.111715 -0.915021
v 0.922585 0.454255 0.392175
v 0.944946 0.291277 0.310501
v 0.961194 0.419577 0.230315
v 0.815519 0.325956 0.597362
v 0.747061 0.162978 0.640689
v 0.837879 0.162978 0.515688
v 0.498970 0.388741 0.787454
v 0.577607 0.275860 0.776572
v 0.646064 0.438837 0.733245
v -0.108014 0.444536 0.972292
v -0.019852 0.278709 0.967714
v 0.048458 0.391590 0.930850
v -0.323270 0.331654 0.961410
v -0.382055 0.165827 0.909086
v -0.235108 0.165827 0.956832
v -0.596912 0.389437 0.719695
v -0.562956 0.277632 0.790517
v -0.504172 0.443459 0.842841
v -0.843990 0.374673 0.208684
v -0.869093 0.243239 0.285938
v -0.812230 0.355044 0.340116
v -0.900853 0.262868 0.000000
v -0.925955 0.131434 -0.077253
v -0.925955 0.131434 0.077253
v -0.812230 0.355044 -0.340116
v -0.869093 0.243239 -0.285938
v -0.843990 0.374673 -0.208684
v -0.459283 0.374674 -0.738191
v -0.540512 0.243239 -0.738193
v -0.574467 0.355044 -0.667370
v -0.278381 0.262869 -0.856760
v -0.212664 0.131434 -0.904507
v -0.359610 0.131434 -0.856761
v 0.072477 0.355044 -0.877577
v 0.003380 0.243239 -0.914915
v -0.062337 0.374674 -0.867168
v 0.598589 0.389825 -0.717599
v 0.534786 0.243222 -0.742562
v 0.470508 0.363135 -0.773221
v 0.771664 0.268114 -0.562342
v 0.815825 0.133323 -0.495894
v 0.712447 0.132101 -0.613395
v 0.996443 0.396028 -0.232971
v 0.943309 0.262937 -0.300271
v 0.962636 0.408196 -0.392449
v 0.742398 0.733809 0.155969
v 0.816381 0.667118 0.314915
v 0.863693 0.645302 0.152719
v 0.518916 0.801051 0.283932
v 0.428064 0.800968 0.408925
v 0.602855 0.751282 0.442853
v 0.172345 0.925431 0.124913
v 0.212809 0.888042 0.249955
v 0.303628 0.888042 0.124956
v 0.061376 0.704036 0.717712
v -0.067400 0.657199 0.847291
v 0.089072 0.604254 0.805849
v -0.113265 0.803818 0.581828
v -0.260209 0.803818 0.534082
v -0.242040 0.756981 0.711407
v -0.065419 0.925432 0.202165
v -0.171898 0.888043 0.279461
v -0.024954 0.888043 0.327207
v -0.606225 0.668566 0.285937
v -0.712556 0.587336 0.208684
v -0.680796 0.567707 0.340115
v -0.531654 0.769425 0.077253
v -0.531654 0.769425 -0.077253
v -0.637985 0.688195 0.000000
v -0.212363 0.925432 -0.000086
v -0.318843 0.888043 -0.077296
v -0.318843 0.888043 0.077210
v -0.459280 0.668566 -0.488190
v -0.418667 0.587337 -0.613190
v -0.533852 0.567708 -0.542368
v -0.237765 0.769425 -0.481757
v -0.090820 0.769425 -0.529503
v -0.197151 0.688196 -0.606758
v -0.065419 0.925432 -0.202338
v -0.024954 0.888043 -0.327294
v -0.171898 0.888043 -0.279548
v 0.365643 0.756745 -0.690803
v 0.535416 0.701217 -0.729533
v 0.379204 0.608772 -0.741469
v 0.436638 0.861300 -0.417184
v 0.525049 0.869941 -0.291666
v 0.625133 0.954917 -0.476736
v 0.172966 0.931327 -0.125590
v 0.309623 0.923150 -0.127564
v 0.218531 0.928706 -0.255478
v 0.758622 0.792869 -0.149822
v 0.913263 0.697701 -0.129158
v 0.933302 0.813556 -0.304425
v 0.084608 0.668567 -0.664913
v 0.113091 0.567708 -0.752576
v -0.021724 0.587337 -0.742167
v -0.606225 0.668566 -0.285937
v -0.680796 0.567707 -0.340115
v -0.712556 0.587336 -0.208684
v -0.481725 0.702959 0.540515
v -0.556296 0.602100 0.594693
v -0.463556 0.656122 0.717840
v 0.364942 0.701187 0.622061
v 0.392637 0.601405 0.710199
v 0.539732 0.651501 0.655989
v 0.803551 -0.112003 -0.488391
v 0.746471 -0.223726 -0.542470
v 0.712461 -0.112011 -0.613398
v -0.216043 -0.111805 -0.914916
v -0.285140 -0.223610 -0.877579
v -0.362990 -0.111805 -0.867171
v -0.936900 -0.111804 -0.077253
v -0.922742 -0.223608 0.000000
v -0.936900 -0.111804 0.077253
v -0.362990 -0.111805 0.867171
v -0.285140 -0.223610 0.877579
v -0.216043 -0.111805 0.914916
v 0.712559 -0.111805 0.613193
v 0.746515 -0.223610 0.542370
v 0.803377 -0.111805 0.488192
v 0.540402 -0.243419 -0.738402
v 0.574412 -0.355134 -0.667475
v 0.459228 -0.374763 -0.738296
v -0.535037 -0.243239 -0.742170
v -0.457188 -0.355044 -0.752578
v -0.560138 -0.374673 -0.664915
v -0.871183 -0.243238 0.279506
v -0.857025 -0.355042 0.202252
v -0.805466 -0.374672 0.327252
v -0.003380 -0.243239 0.914915
v -0.072477 -0.355044 0.877577
v 0.062337 -0.374674 0.867168
v 0.869093 -0.243239 0.285938
v 0.812230 -0.355044 0.340116
v 0.843990 -0.374673 0.208684
v 0.172047 -0.887991 -0.279505
v 0.065717 -0.925327 -0.202252
v 0.025103 -0.887991 -0.327250
v -0.212660 -0.887990 -0.249998
v -0.172046 -0.925327 -0.124999
v -0.303479 -0.887989 -0.124999
v -0.303479 -0.887989 0.124999
v -0.172046 -0.925327 0.124999
v -0.212660 -0.887990 0.249998
v 0.712556 -0.587336 0.208684
v 0.680796 -0.567707 0.340115
v 0.606225 -0.668566 0.285937
v 0.025103 -0.887991 0.327250
v 0.065717 -0.925327 0.202252
v 0.172047 -0.887991 0.279505
vn 0.1024 -0.9435 0.3151
vn 0.7002 -0.6617 0.2680
vn -0.2680 -0.9435 0.1947
vn -0.2680 -0.9435 -0.1947
vn 0.1024 -0.9435 -0.3151
vn 0.9050 -0.3304 0.2680
vn 0.0247 -0.3304 0.9435
vn -0.8897 -0.3304 0.3151
vn -0.5746 -0.3304 -0.7488
vn 0.5272 -0.3274 -0.7842
vn 0.8026 -0.1256 0.5831
vn -0.3066 -0.1256 0.9435
vn -0.9921 -0.1256 -0.0000
vn -0.3066 -0.1256 -0.9435
vn 0.7908 -0.1287 -0.5984
vn 0.0459 0.6685 0.7423
vn -0.7111 0.6583 0.2467
vn -0.7002 0.6617 -0.2680
vn 0.0131 0.5373 -0.8433
vn 0.7072 0.7060 -0.0367
vn 0.2656 0.9638 -0.0238
vn 0.2659 0.9637 -0.0240
vn 0.3015 -0.0808 -0.9500
vn -0.3869 0.9055 -0.1745
vn -0.5109 0.6355 -0.5789
vn -0.4713 0.6617 -0.5831
vn -0.3313 0.9435 -0.0000
vn -0.6071 0.7947 -0.0000
vn -0.7002 0.6617 0.2680
vn -0.1024 0.9435 0.3153
vn -0.0853 0.9611 0.2626
vn 0.3933 0.6676 0.6322
vn 0.2686 0.9433 0.1951
vn 0.2381 0.9557 0.1730
vn 0.5658 0.8235 -0.0415
vn 0.8296 0.2449 -0.5018
vn 0.7307 0.1327 -0.6697
vn 0.5741 0.3301 -0.7493
vn -0.0247 0.3304 -0.9435
vn -0.3035 0.1876 -0.9342
vn -0.5346 0.3304 -0.7779
vn -0.9050 0.3304 -0.2680
vn -0.9822 0.1876 -0.0000
vn -0.9050 0.3304 0.2680
vn -0.8166 0.1108 0.5664
vn -0.3036 -0.1872 0.9342
vn 0.2949 0.1307 0.9466
vn 0.3063 0.1223 0.9441
vn 0.7957 -0.1805 0.5781
vn 0.9735 0.0193 0.2281
vn 0.3061 0.1259 -0.9436
vn 0.3029 -0.1880 -0.9343
vn 0.0247 -0.3304 -0.9435
vn -0.8026 0.1256 -0.5831
vn -0.7947 -0.1876 -0.5773
vn -0.8897 -0.3304 -0.3151
vn -0.8026 0.1256 0.5831
vn -0.7947 -0.1876 0.5773
vn -0.5746 -0.3304 0.7488
vn 0.3067 0.1227 0.9439
vn 0.3035 -0.1876 0.9342
vn 0.5346 -0.3304 0.7779
vn 0.9921 -0.1256 0.0001
vn 0.9822 -0.1877 0.0001
vn 0.9049 -0.3305 -0.2680
vn 0.4713 -0.6617 -0.5831
vn 0.1876 -0.7947 -0.5773
vn -0.0385 -0.6617 -0.7488
vn -0.4089 -0.6617 -0.6284
vn -0.4911 -0.7947 -0.3568
vn -0.7240 -0.6617 -0.1947
vn -0.7240 -0.6617 0.1947
vn -0.4911 -0.7947 0.3568
vn -0.4089 -0.6617 0.6284
vn 0.7002 -0.6617 -0.2680
vn 0.6071 -0.7947 -0.0000
vn 0.3313 -0.9435 -0.0000
vn -0.0385 -0.6617 0.7488
vn 0.1876 -0.7947 0.5773
vn 0.4713 -0.6617 0.5831
vn 0.6964 -0.6718 -0.2522
vn 0.4707 -0.6621 -0.5832
vn 0.8081 -0.5502 -0.2105
vn 0.8913 -0.4034 -0.2069
vn 0.8969 -0.3622 -0.2537
vn 0.9756 -0.1996 0.0916
vn 0.9749 -0.2014 0.0948
vn 0.9836 -0.1563 0.0901
vn 0.9877 -0.1274 0.0901
vn 0.9857 -0.1413 0.0916
vn 0.9536 -0.0197 0.3004
vn 0.5385 0.0608 -0.8404
vn 0.4160 -0.0263 -0.9090
vn 0.4447 0.2295 -0.8658
vn 0.8243 -0.2093 -0.5261
vn 0.8428 0.0108 -0.5381
vn 0.8044 0.1065 -0.5844
vn 0.9604 -0.0648 -0.2711
vn 0.8940 -0.1420 -0.4249
vn 0.6642 -0.3295 -0.6710
vn 0.5636 0.8242 0.0547
vn 0.5885 0.8059 0.0642
vn 0.6050 0.7957 0.0280
vn 0.2106 0.9358 0.2828
vn 0.2375 0.9558 0.1733
vn 0.1493 0.9596 0.2386
vn -0.1876 0.7947 -0.5773
vn -0.1025 0.9434 -0.3155
vn -0.3290 0.6593 -0.6761
vn -0.0683 0.4218 -0.9041
vn 0.2392 0.3690 -0.8981
vn 0.4461 0.8809 -0.1579
vn 0.2709 0.9283 -0.2547
vn 0.5485 0.8342 0.0561
vn 0.2327 0.9585 -0.1644
vn 0.0591 0.9975 -0.0381
vn 0.0637 0.9920 0.1088
vn 0.5077 0.8170 0.2734
vn 0.4730 0.8317 0.2906
vn 0.8797 0.4337 -0.1949
vn -0.3437 0.3565 -0.8688
vn -0.3161 0.5699 -0.7584
vn 0.0385 0.6617 -0.7488
vn 0.6929 -0.1737 -0.6998
vn 0.7778 -0.0968 -0.6210
vn 0.8027 -0.1258 -0.5830
vn 0.5345 -0.3310 -0.7776
vn 0.8019 -0.1248 -0.5843
vn 0.8017 -0.1268 -0.5842
vn 0.7349 0.0057 -0.6782
vn 0.7076 -0.0226 -0.7063
vn 0.7995 -0.1273 -0.5871
vn -0.4939 0.6290 -0.6003
vn -0.5104 0.4775 -0.7152
vn 0.3076 0.9473 -0.0891
vn 0.7483 0.5628 -0.3510
vn 0.5893 0.4081 -0.6973
vn 0.3232 0.8187 0.4747
vn 0.3882 0.7478 0.5387
vn 0.8500 0.3895 0.3547
vn 0.5075 0.8545 0.1104
vn 0.3688 0.9110 0.1844
vn 0.3257 0.8184 0.4734
vn -0.0287 0.9914 -0.1277
vn -0.1961 0.9806 0.0036
vn -0.2181 0.9672 -0.1306
vn -0.0250 0.9993 -0.0289
vn 0.0597 0.9982 0.0008
vn 0.0539 0.9985 0.0050
vn 0.2687 0.9432 -0.1952
vn 0.2285 0.9593 -0.1660
vn 0.2263 0.9509 -0.2112
vn 0.2507 0.8335 -0.4923
vn 0.4224 0.8050 -0.4167
vn 0.7682 0.3308 -0.5482
vn -0.4648 0.8813 -0.0858
vn -0.3819 0.9007 0.2070
vn -0.1304 0.9259 0.3546
vn 0.1050 0.9019 -0.4190
vn 0.4254 0.8536 -0.3008
vn -0.0964 0.9926 0.0739
vn 0.0797 0.4743 -0.8767
vn 0.1366 0.3657 -0.9207
vn 0.2499 0.5545 -0.7938
vn 0.0006 0.3240 -0.9461
vn -0.1129 0.3126 -0.9432
vn 0.0386 0.0635 -0.9972
vn 0.0464 0.8138 -0.5792
vn 0.1007 0.7667 -0.6340
vn -0.0701 0.4307 -0.8997
vn 0.1065 0.9510 0.2903
vn 0.1446 0.9373 0.3170
vn 0.2516 0.9263 0.2805
vn 0.2662 0.9350 0.2343
vn 0.2312 0.9501 0.2093
vn 0.2318 0.9520 0.2001
vn 0.2141 0.9587 0.1872
vn 0.2380 0.9556 0.1736
vn 0.2063 0.9466 0.2477
vn 0.1956 0.9366 0.2908
vn 0.1899 0.9390 0.2866
vn 0.4903 0.8489 0.1975
vn 0.5879 0.7710 0.2448
vn 0.7029 0.6919 0.1651
vn 0.5864 0.7987 0.1347
vn 0.5894 0.8054 0.0636
vn 0.5683 0.8210 0.0553
vn 0.5088 0.8591 0.0560
vn 0.5633 0.8226 0.0774
vn 0.5209 0.8468 0.1074
vn 0.9174 -0.2474 -0.3117
vn 0.6478 -0.3968 -0.6504
vn 0.6629 -0.4079 -0.6278
vn 0.9313 -0.2907 -0.2196
vn 0.9392 -0.2641 -0.2193
vn 0.7422 -0.4267 -0.5168
vn 0.9722 0.0566 -0.2273
vn 0.9626 0.0438 -0.2675
vn 0.9810 -0.1689 0.0954
vn 0.7641 -0.0670 -0.6416
vn 0.7569 0.1468 -0.6369
vn 0.7947 0.1874 -0.5774
vn 0.7497 -0.0798 -0.6569
vn 0.7488 -0.0790 -0.6580
vn 0.7495 0.0520 -0.6600
vn 0.6464 -0.4167 -0.6392
vn 0.7224 -0.1035 -0.6837
vn 0.7497 -0.0799 -0.6569
vn 0.3344 0.0834 -0.9388
vn 0.4604 0.1750 -0.8703
vn 0.4036 0.1983 -0.8932
vn 0.3866 0.0626 -0.9201
vn 0.4016 -0.0189 -0.9156
vn 0.6260 0.1394 -0.7672
vn 0.3280 -0.2547 -0.9097
vn 0.5586 -0.1233 -0.8202
vn 0.2842 -0.0082 -0.9587
vn 0.9578 -0.0125 0.2871
vn 0.9546 -0.0055 0.2979
vn 0.9376 -0.0324 0.3461
vn 0.9834 -0.1758 -0.0450
vn 0.9971 -0.0628 -0.0439
vn 0.9986 -0.0485 -0.0205
vn 0.9921 -0.1157 0.0481
vn 0.9878 -0.1337 0.0802
vn 0.9857 -0.1484 0.0802
vn 0.9775 -0.1568 0.1414
vn 0.9730 -0.1833 0.1401
vn 0.9689 -0.2435 0.0450
vn 0.9760 -0.2132 0.0455
vn 0.9620 -0.2692 0.0457
vn 0.9660 -0.2403 0.0950
vn 0.9992 -0.0331 -0.0205
vn 0.9735 -0.1513 0.1713
vn 0.9263 -0.3354 0.1718
vn 0.8918 -0.3511 -0.2852
vn 0.8941 -0.3457 -0.2849
vn 0.8990 -0.3408 -0.2751
vn 0.8650 -0.3747 -0.3338
vn 0.8733 -0.4218 -0.2438
vn 0.9029 -0.3558 -0.2411
vn 0.8986 -0.2190 -0.3801
vn 0.7983 -0.4603 -0.3884
vn 0.8346 -0.4371 -0.3352
vn 0.4622 -0.6670 -0.5843
vn 0.4708 -0.6616 -0.5836
vn 0.6906 -0.6695 -0.2735
vn 0.6890 -0.6740 -0.2665
vn 0.7001 -0.6621 -0.2674
vn 0.8893 -0.3764 -0.2598
vn 0.9059 -0.3360 -0.2578
vn 0.9007 -0.3413 -0.2686
vn 0.9733 -0.2215 0.0605
vn 0.9941 -0.1000 0.0414
vn 0.9880 -0.1490 0.0415
vn 0.9887 -0.1373 0.0603
vn 0.3765 0.1781 -0.9091
vn 0.8403 0.0135 -0.5420
vn 0.8399 0.0345 -0.5417
vn 0.8060 -0.0000 -0.5919
vn 0.9052 0.0432 -0.4227
vn 0.8501 -0.0197 -0.5263
vn 0.8299 0.0029 -0.5579
vn 0.5879 0.8083 -0.0315
vn 0.5658 0.8235 -0.0400
vn 0.5671 0.8226 -0.0410
vn -0.2078 0.9616 -0.1791
vn -0.2619 0.8980 -0.3535
vn -0.1214 0.4175 -0.9005
vn 0.1618 -0.0586 -0.9851
vn 0.2696 0.0422 -0.9621
vn 0.3101 0.9504 -0.0232
vn 0.2630 0.9636 -0.0477
vn -0.1256 0.9738 0.1896
vn 0.1132 0.9934 -0.0184
vn 0.1720 0.9832 -0.0609
vn 0.1763 0.9826 0.0584
vn 0.4785 0.8265 0.2966
vn 0.8134 0.5709 0.1112
vn 0.8008 0.5523 0.2318
vn -0.1458 0.4328 -0.8896
vn -0.1084 0.6345 -0.7653
vn 0.7746 -0.1294 -0.6190
vn 0.7925 -0.1116 -0.5996
vn 0.8028 -0.1248 -0.5831
vn 0.5338 -0.3306 -0.7783
vn 0.5338 -0.3314 -0.7780
vt 0.181819 0.000000
vt 0.193183 0.019683
vt 0.170455 0.019683
vt 0.272728 0.157461
vt 0.284092 0.137778
vt 0.295455 0.157461
vt 0.909091 0.000000
vt 0.920455 0.019683
vt 0.897727 0.019683
vt 0.727273 0.000000
vt 0.738637 0.019683
vt 0.715909 0.019683
vt 0.545455 0.000000
vt 0.556819 0.019683
vt 0.534091 0.019683
vt 0.284092 0.177144
vt 0.090910 0.157461
vt 0.113637 0.157461
vt 0.102274 0.177144
vt 0.818182 0.157461
vt 0.840909 0.157461
vt 0.829546 0.177144
vt 0.636364 0.157461
vt 0.659091 0.157461
vt 0.647728 0.177144
vt 0.454546 0.157461
vt 0.477273 0.157461
vt 0.465910 0.177144
vt 0.261364 0.177144
vt 0.079546 0.177144
vt 0.806818 0.177144
vt 0.625000 0.177144
vt 0.443182 0.177144
vt 0.181819 0.314921
vt 0.204546 0.314921
vt 0.193183 0.334604
vt 0.000000 0.314921
vt 0.022727 0.314921
vt 0.011364 0.334604
vt 0.727273 0.314921
vt 0.750000 0.314921
vt 0.738637 0.334604
vt 0.545455 0.314921
vt 0.568182 0.314921
vt 0.556819 0.334604
vt 0.363637 0.314921
vt 0.386364 0.314921
vt 0.375001 0.334604
vt 0.409092 0.393651
vt 0.431819 0.393651
vt 0.420455 0.413334
vt 0.420455 0.373969
vt 0.454546 0.314921
vt 0.477273 0.314921
vt 0.465910 0.334604
vt 0.590909 0.393651
vt 0.613637 0.393651
vt 0.602273 0.413334
vt 0.602273 0.373969
vt 0.636364 0.314921
vt 0.659091 0.314921
vt 0.647728 0.334604
vt 0.772727 0.393651
vt 0.795455 0.393651
vt 0.784091 0.413334
vt 0.784091 0.373969
vt 0.818182 0.314921
vt 0.840909 0.314921
vt 0.829546 0.334604
vt 0.045455 0.393651
vt 0.068182 0.393651
vt 0.056819 0.413334
vt 0.056819 0.373969
vt 0.090910 0.314921
vt 0.113637 0.314921
vt 0.102273 0.334604
vt 0.227273 0.393651
vt 0.250001 0.393651
vt 0.238637 0.413334
vt 0.238637 0.373969
vt 0.272728 0.314921
vt 0.295455 0.314921
vt 0.284092 0.334604
vt 0.409092 0.236191
vt 0.420455 0.255874
vt 0.397728 0.255874
vt 0.431819 0.236191
vt 0.500000 0.236191
vt 0.511364 0.255874
vt 0.488637 0.255874
vt 0.590909 0.236191
vt 0.602273 0.255874
vt 0.579546 0.255874
vt 0.613637 0.236191
vt 0.681818 0.236191
vt 0.693182 0.255874
vt 0.670455 0.255874
vt 0.772727 0.236191
vt 0.784091 0.255874
vt 0.761364 0.255874
vt 0.795455 0.236191
vt 0.863636 0.236191
vt 0.875000 0.255874
vt 0.852273 0.255874
vt 0.045455 0.236191
vt 0.056819 0.255874
vt 0.034091 0.255874
vt 0.068182 0.236191
vt 0.136365 0.236191
vt 0.147728 0.255874
vt 0.125001 0.255874
vt 0.227273 0.236191
vt 0.238637 0.255874
vt 0.215910 0.255874
vt 0.250001 0.236191
vt 0.318182 0.236191
vt 0.329546 0.255874
vt 0.306819 0.255874
vt 0.522728 0.236191
vt 0.511364 0.216509
vt 0.545455 0.157461
vt 0.568182 0.157461
vt 0.556819 0.177144
vt 0.704546 0.236191
vt 0.693182 0.216509
vt 0.727273 0.157461
vt 0.750000 0.157461
vt 0.738637 0.177144
vt 0.886364 0.236191
vt 0.875000 0.216509
vt 0.909091 0.157461
vt 0.931818 0.157461
vt 0.920455 0.177144
vt 0.159092 0.236191
vt 0.147728 0.216509
vt 0.181819 0.157461
vt 0.204546 0.157461
vt 0.193183 0.177144
vt 0.340910 0.236191
vt 0.329546 0.216509
vt 0.363637 0.157461
vt 0.386364 0.157461
vt 0.375001 0.177144
vt 0.500000 0.078731
vt 0.511364 0.098413
vt 0.488637 0.098413
vt 0.522728 0.078731
vt 0.590909 0.078731
vt 0.602273 0.098413
vt 0.579546 0.098413
vt 0.681818 0.078731
vt 0.693182 0.098413
vt 0.670455 0.098413
vt 0.704546 0.078731
vt 0.772727 0.078731
vt 0.784091 0.098413
vt 0.761364 0.098413
vt 0.863636 0.078731
vt 0.875000 0.098413
vt 0.852273 0.098413
vt 0.886364 0.078731
vt 0.954545 0.078731
vt 0.965909 0.098413
vt 0.943182 0.098413
vt 0.375001 0.137778
vt 0.352273 0.137778
vt 0.318182 0.078731
vt 0.329546 0.059048
vt 0.340910 0.078731
vt 0.136365 0.078731
vt 0.147728 0.098413
vt 0.125001 0.098413
vt 0.159092 0.078731
vt 0.227273 0.078731
vt 0.238637 0.098413
vt 0.215910 0.098413
vt 0.204546 0.118096
vt 0.215910 0.137778
vt 0.193183 0.137778
vt 0.227273 0.118096
vt 0.250001 0.118096
vt 0.261364 0.137778
vt 0.238637 0.137778
vt 0.159092 0.118096
vt 0.181819 0.118096
vt 0.170455 0.137778
vt 0.170455 0.098413
vt 0.181819 0.078731
vt 0.204546 0.078731
vt 0.193183 0.098413
vt 0.113637 0.118096
vt 0.125001 0.137778
vt 0.102274 0.137778
vt 0.136364 0.118096
vt 0.147728 0.137778
vt 0.363637 0.078731
vt 0.375001 0.059048
vt 0.386364 0.078731
vt 0.352273 0.059048
vt 0.340910 0.039365
vt 0.352273 0.019683
vt 0.363637 0.039365
vt 0.386364 0.118096
vt 0.375001 0.098413
vt 0.397728 0.098413
vt 0.363637 0.118096
vt 0.340910 0.118096
vt 0.329546 0.098413
vt 0.352273 0.098413
vt 0.409092 0.157461
vt 0.420455 0.137778
vt 0.431819 0.157461
vt 0.397728 0.137778
vt 0.409092 0.118096
vt 0.931818 0.118096
vt 0.943182 0.137778
vt 0.920455 0.137778
vt 0.954545 0.118096
vt 0.977273 0.118096
vt 0.988636 0.137778
vt 0.965909 0.137778
vt 0.886364 0.118096
vt 0.909091 0.118096
vt 0.897727 0.137778
vt 0.897727 0.098413
vt 0.909091 0.078731
vt 0.931818 0.078731
vt 0.920455 0.098413
vt 0.840909 0.118096
vt 0.852273 0.137778
vt 0.829546 0.137778
vt 0.863636 0.118096
vt 0.875000 0.137778
vt 0.750000 0.118096
vt 0.761364 0.137778
vt 0.738637 0.137778
vt 0.772727 0.118096
vt 0.795455 0.118096
vt 0.806818 0.137778
vt 0.784091 0.137778
vt 0.704546 0.118096
vt 0.727273 0.118096
vt 0.715909 0.137778
vt 0.715909 0.098413
vt 0.727273 0.078731
vt 0.750000 0.078731
vt 0.738637 0.098413
vt 0.659091 0.118096
vt 0.670455 0.137778
vt 0.647728 0.137778
vt 0.681818 0.118096
vt 0.693182 0.137778
vt 0.568182 0.118096
vt 0.579546 0.137778
vt 0.556819 0.137778
vt 0.590909 0.118096
vt 0.613637 0.118096
vt 0.625000 0.137778
vt 0.602273 0.137778
vt 0.522728 0.118096
vt 0.545455 0.118096
vt 0.534091 0.137778
vt 0.534091 0.098413
vt 0.545455 0.078731
vt 0.568182 0.078731
vt 0.556819 0.098413
vt 0.477273 0.118096
vt 0.488637 0.137778
vt 0.465910 0.137778
vt 0.500000 0.118096
vt 0.511364 0.137778
vt 0.386364 0.196826
vt 0.409092 0.196826
vt 0.397728 0.216509
vt 0.397728 0.177144
vt 0.420455 0.177144
vt 0.363637 0.236191
vt 0.375001 0.216509
vt 0.386364 0.236191
vt 0.352273 0.216509
vt 0.340910 0.196826
vt 0.352273 0.177144
vt 0.363637 0.196826
vt 0.340910 0.275556
vt 0.363637 0.275556
vt 0.352273 0.295238
vt 0.352273 0.255874
vt 0.375001 0.255874
vt 0.204546 0.196826
vt 0.227273 0.196826
vt 0.215910 0.216509
vt 0.215910 0.177144
vt 0.227273 0.157461
vt 0.250001 0.157461
vt 0.238637 0.177144
vt 0.181819 0.236191
vt 0.193183 0.216509
vt 0.204546 0.236191
vt 0.170455 0.216509
vt 0.159092 0.196826
vt 0.170455 0.177144
vt 0.181819 0.196826
vt 0.159092 0.275556
vt 0.181819 0.275556
vt 0.170455 0.295238
vt 0.170455 0.255874
vt 0.193183 0.255874
vt 0.931818 0.196826
vt 0.954545 0.196826
vt 0.943182 0.216509
vt 0.943182 0.177144
vt 0.954545 0.157461
vt 0.977273 0.157461
vt 0.965909 0.177144
vt 0.909091 0.236191
vt 0.920455 0.216509
vt 0.931818 0.236191
vt 0.897727 0.216509
vt 0.886364 0.196826
vt 0.897727 0.177144
vt 0.909091 0.196826
vt 0.886364 0.275556
vt 0.909091 0.275556
vt 0.897727 0.295238
vt 0.897727 0.255874
vt 0.920455 0.255874
vt 0.750000 0.196826
vt 0.772727 0.196826
vt 0.761364 0.216509
vt 0.761364 0.177144
vt 0.772727 0.157461
vt 0.795455 0.157461
vt 0.784091 0.177144
vt 0.727273 0.236191
vt 0.738637 0.216509
vt 0.750000 0.236191
vt 0.715909 0.216509
vt 0.704546 0.196826
vt 0.715909 0.177144
vt 0.727273 0.196826
vt 0.704546 0.275556
vt 0.727273 0.275556
vt 0.715909 0.295238
vt 0.715909 0.255874
vt 0.738637 0.255874
vt 0.568182 0.196826
vt 0.590909 0.196826
vt 0.579546 0.216509
vt 0.579546 0.177144
vt 0.590909 0.157461
vt 0.613637 0.157461
vt 0.602273 0.177144
vt 0.545455 0.236191
vt 0.556819 0.216509
vt 0.568182 0.236191
vt 0.534091 0.216509
vt 0.522728 0.196826
vt 0.534091 0.177144
vt 0.545455 0.196826
vt 0.522728 0.275556
vt 0.545455 0.275556
vt 0.534091 0.295238
vt 0.534091 0.255874
vt 0.556819 0.255874
vt 0.295455 0.275556
vt 0.306819 0.295238
vt 0.284092 0.295238
vt 0.318182 0.275556
vt 0.329546 0.295238
vt 0.250001 0.275556
vt 0.272728 0.275556
vt 0.261364 0.295238
vt 0.261364 0.255874
vt 0.272728 0.236191
vt 0.295455 0.236191
vt 0.284092 0.255874
vt 0.204546 0.275556
vt 0.215910 0.295238
vt 0.193183 0.295238
vt 0.227273 0.275556
vt 0.238637 0.295238
vt 0.113637 0.275556
vt 0.125001 0.295238
vt 0.102273 0.295238
vt 0.136364 0.275556
vt 0.147728 0.295238
vt 0.068182 0.275556
vt 0.090910 0.275556
vt 0.079546 0.295238
vt 0.079546 0.255874
vt 0.090910 0.236191
vt 0.113637 0.236191
vt 0.102273 0.255874
vt 0.022728 0.275556
vt 0.034091 0.295238
vt 0.011364 0.295238
vt 0.045455 0.275556
vt 0.056819 0.295238
vt 0.840909 0.275556
vt 0.852273 0.295238
vt 0.829546 0.295238
vt 0.863636 0.275556
vt 0.875000 0.295238
vt 0.795455 0.275556
vt 0.818182 0.275556
vt 0.806818 0.295238
vt 0.806818 0.255874
vt 0.818182 0.236191
vt 0.840909 0.236191
vt 0.829546 0.255874
vt 0.750000 0.275556
vt 0.761364 0.295238
vt 0.738637 0.295238
vt 0.772727 0.275556
vt 0.784091 0.295238
vt 0.659091 0.275556
vt 0.670455 0.295238
vt 0.647728 0.295238
vt 0.681818 0.275556
vt 0.693182 0.295238
vt 0.613637 0.275556
vt 0.636364 0.275556
vt 0.625000 0.295238
vt 0.625000 0.255874
vt 0.636364 0.236191
vt 0.659091 0.236191
vt 0.647728 0.255874
vt 0.568182 0.275556
vt 0.579546 0.295238
vt 0.556819 0.295238
vt 0.590909 0.275556
vt 0.602273 0.295238
vt 0.477273 0.275556
vt 0.488637 0.295238
vt 0.465910 0.295238
vt 0.500000 0.275556
vt 0.511364 0.295238
vt 0.431819 0.275556
vt 0.454546 0.275556
vt 0.443182 0.295238
vt 0.443182 0.255874
vt 0.454546 0.236191
vt 0.477273 0.236191
vt 0.465910 0.255874
vt 0.386364 0.275556
vt 0.397728 0.295238
vt 0.375001 0.295238
vt 0.409091 0.275556
vt 0.420455 0.295238
vt 0.295455 0.354286
vt 0.318182 0.354286
vt 0.306819 0.373969
vt 0.306819 0.334604
vt 0.318182 0.314921
vt 0.340910 0.314921
vt 0.329546 0.334604
vt 0.272728 0.393651
vt 0.284092 0.373969
vt 0.295455 0.393651
vt 0.261364 0.373969
vt 0.250001 0.354286
vt 0.261364 0.334604
vt 0.272728 0.354286
vt 0.250001 0.433017
vt 0.272728 0.433017
vt 0.261364 0.452699
vt 0.261364 0.413334
vt 0.284092 0.413334
vt 0.113637 0.354286
vt 0.136364 0.354286
vt 0.125001 0.373969
vt 0.125001 0.334604
vt 0.136364 0.314921
vt 0.159092 0.314921
vt 0.147728 0.334604
vt 0.090910 0.393651
vt 0.102273 0.373969
vt 0.113637 0.393651
vt 0.079546 0.373969
vt 0.068182 0.354286
vt 0.079546 0.334604
vt 0.090910 0.354286
vt 0.068182 0.433017
vt 0.090910 0.433017
vt 0.079546 0.452699
vt 0.079546 0.413334
vt 0.102274 0.413334
vt 0.840909 0.354286
vt 0.863636 0.354286
vt 0.852273 0.373969
vt 0.852273 0.334604
vt 0.863636 0.314921
vt 0.886364 0.314921
vt 0.875000 0.334604
vt 0.818182 0.393651
vt 0.829546 0.373969
vt 0.840909 0.393651
vt 0.806818 0.373969
vt 0.795455 0.354286
vt 0.806818 0.334604
vt 0.818182 0.354286
vt 0.795455 0.433017
vt 0.818182 0.433017
vt 0.806818 0.452699
vt 0.806818 0.413334
vt 0.829546 0.413334
vt 0.659091 0.354286
vt 0.681818 0.354286
vt 0.670455 0.373969
vt 0.670455 0.334604
vt 0.681818 0.314921
vt 0.704546 0.314921
vt 0.693182 0.334604
vt 0.636364 0.393651
vt 0.647728 0.373969
vt 0.659091 0.393651
vt 0.625000 0.373969
vt 0.613637 0.354286
vt 0.625000 0.334604
vt 0.636364 0.354286
vt 0.613637 0.433017
vt 0.636364 0.433017
vt 0.625000 0.452699
vt 0.625000 0.413334
vt 0.647728 0.413334
vt 0.477273 0.354286
vt 0.500000 0.354286
vt 0.488637 0.373969
vt 0.488637 0.334604
vt 0.500000 0.314921
vt 0.522728 0.314921
vt 0.511364 0.334604
vt 0.454546 0.393651
vt 0.465910 0.373969
vt 0.477273 0.393651
vt 0.443182 0.373969
vt 0.431819 0.354286
vt 0.443182 0.334604
vt 0.454546 0.354286
vt 0.431819 0.433017
vt 0.454546 0.433017
vt 0.443182 0.452699
vt 0.443182 0.413334
vt 0.465910 0.413334
vt 0.386364 0.354286
vt 0.409091 0.354286
vt 0.397728 0.373969
vt 0.397728 0.334604
vt 0.409091 0.314921
vt 0.431819 0.314921
vt 0.420455 0.334604
vt 0.568182 0.354286
vt 0.590909 0.354286
vt 0.579546 0.373969
vt 0.579546 0.334604
vt 0.590909 0.314921
vt 0.613637 0.314921
vt 0.602273 0.334604
vt 0.750000 0.354286
vt 0.772727 0.354286
vt 0.761364 0.373969
vt 0.761364 0.334604
vt 0.772727 0.314921
vt 0.795455 0.314921
vt 0.784091 0.334604
vt 0.022728 0.354286
vt 0.045455 0.354286
vt 0.034091 0.373969
vt 0.034091 0.334604
vt 0.045455 0.314921
vt 0.068182 0.314921
vt 0.056819 0.334604
vt 0.204546 0.354286
vt 0.227273 0.354286
vt 0.215910 0.373969
vt 0.215910 0.334604
vt 0.227273 0.314921
vt 0.250001 0.314921
vt 0.238637 0.334604
vt 0.431819 0.196826
vt 0.443182 0.216509
vt 0.420455 0.216509
vt 0.454546 0.196826
vt 0.477273 0.196826
vt 0.488637 0.216509
vt 0.465910 0.216509
vt 0.613637 0.196826
vt 0.625000 0.216509
vt 0.602273 0.216509
vt 0.636364 0.196826
vt 0.659091 0.196826
vt 0.670455 0.216509
vt 0.647728 0.216509
vt 0.795455 0.196826
vt 0.806818 0.216509
vt 0.784091 0.216509
vt 0.818182 0.196826
vt 0.840909 0.196826
vt 0.852273 0.216509
vt 0.829546 0.216509
vt 0.068182 0.196826
vt 0.079546 0.216509
vt 0.056819 0.216509
vt 0.090910 0.196826
vt 0.113637 0.196826
vt 0.125001 0.216509
vt 0.102274 0.216509
vt 0.250001 0.196826
vt 0.261364 0.216509
vt 0.238637 0.216509
vt 0.272728 0.196826
vt 0.295455 0.196826
vt 0.306819 0.216509
vt 0.284092 0.216509
vt 0.500000 0.196826
vt 0.488637 0.177144
vt 0.500000 0.157461
vt 0.522728 0.157461
vt 0.511364 0.177144
vt 0.681818 0.196826
vt 0.670455 0.177144
vt 0.681818 0.157461
vt 0.704546 0.157461
vt 0.693182 0.177144
vt 0.863636 0.196826
vt 0.852273 0.177144
vt 0.863636 0.157461
vt 0.886364 0.157461
vt 0.875000 0.177144
vt 0.136364 0.196826
vt 0.125001 0.177144
vt 0.136364 0.157461
vt 0.159092 0.157461
vt 0.147728 0.177144
vt 0.318182 0.196826
vt 0.306819 0.177144
vt 0.318182 0.157461
vt 0.340910 0.157461
vt 0.329546 0.177144
vt 0.522728 0.039365
vt 0.534091 0.059048
vt 0.511364 0.059048
vt 0.545455 0.039365
vt 0.568182 0.039365
vt 0.579546 0.059048
vt 0.556819 0.059048
vt 0.704546 0.039365
vt 0.715909 0.059048
vt 0.693182 0.059048
vt 0.727273 0.039365
vt 0.750000 0.039365
vt 0.761364 0.059048
vt 0.738637 0.059048
vt 0.886364 0.039365
vt 0.897727 0.059048
vt 0.875000 0.059048
vt 0.909091 0.039365
vt 0.931818 0.039365
vt 0.943182 0.059048
vt 0.920455 0.059048
vt 0.329546 0.137778
vt 0.306819 0.137778
vt 0.295455 0.118096
vt 0.306819 0.098413
vt 0.318182 0.118096
vt 0.159092 0.039365
vt 0.170455 0.059048
vt 0.147728 0.059048
vt 0.181819 0.039365
vt 0.204546 0.039365
vt 0.215910 0.059048
vt 0.193183 0.059048
vt 0.488637 0.413334
vt 0.477273 0.433017
vt 0.500000 0.393651
vt 0.465910 0.452699
vt 0.454546 0.472382
vt 0.534091 0.334604
vt 0.522728 0.354286
vt 0.511364 0.373969
vt 0.670455 0.413334
vt 0.659091 0.433017
vt 0.681818 0.393651
vt 0.647728 0.452699
vt 0.636364 0.472382
vt 0.715909 0.334604
vt 0.704546 0.354286
vt 0.693182 0.373969
vt 0.852273 0.413334
vt 0.840909 0.433017
vt 0.863636 0.393651
vt 0.829546 0.452699
vt 0.818182 0.472382
vt 0.897727 0.334604
vt 0.886364 0.354286
vt 0.909091 0.314921
vt 0.875000 0.373969
vt 0.125001 0.413334
vt 0.113637 0.433017
vt 0.136365 0.393651
vt 0.102274 0.452699
vt 0.090910 0.472382
vt 0.170455 0.334604
vt 0.159092 0.354286
vt 0.147728 0.373969
vt 0.306819 0.413334
vt 0.295455 0.433017
vt 0.318182 0.393651
vt 0.284092 0.452699
vt 0.272728 0.472382
vt 0.352273 0.334604
vt 0.340910 0.354286
vt 0.329546 0.373969
vt 0.943182 0.255874
vt 0.931818 0.275556
vt 0.954545 0.236191
vt 0.920455 0.295238
vt 0.988636 0.177144
vt 0.977273 0.196826
vt 1.000000 0.157461
vt 0.965909 0.216509
vt 0.420455 0.098413
vt 0.431819 0.118096
vt 0.409092 0.078731
vt 0.443182 0.137778
vt 0.375001 0.019683
vt 0.386364 0.039365
vt 0.363637 0.000000
vt 0.397728 0.059048
s 0
f 1/1/1 314/2/1 163/3/1
f 2/4/2 164/5/2 166/6/2
f 1/7/3 163/8/3 168/9/3
f 1/10/4 168/11/4 170/12/4
f 1/13/5 170/14/5 317/15/5
f 2/4/6 166/6/6 173/16/6
f 3/17/7 165/18/7 175/19/7
f 4/20/8 169/21/8 177/22/8
f 5/23/9 171/24/9 179/25/9
f 6/26/10 172/27/10 181/28/10
f 2/4/11 173/16/11 326/29/11
f 3/17/12 175/19/12 328/30/12
f 4/20/13 177/22/13 330/31/13
f 5/23/14 179/25/14 332/32/14
f 6/26/15 181/28/15 324/33/15
f 7/34/16 183/35/16 188/36/16
f 8/37/17 184/38/17 190/39/17
f 9/40/18 185/41/18 191/42/18
f 10/43/19 186/44/19 192/45/19
f 11/46/20 187/47/20 339/48/20
f 39/49/21 343/50/21 309/51/21
f 39/49/22 344/52/22 343/50/22
f 37/53/23 217/54/23 225/55/23
f 42/56/24 346/57/24 222/58/24
f 42/56/25 347/59/25 346/57/25
f 36/60/26 216/61/26 228/62/26
f 41/63/27 349/64/27 221/65/27
f 41/63/28 350/66/28 349/64/28
f 35/67/29 215/68/29 231/69/29
f 40/70/30 352/71/30 220/72/30
f 40/70/31 353/73/31 352/71/31
f 34/74/32 214/75/32 234/76/32
f 38/77/33 355/78/33 218/79/33
f 38/77/34 356/80/34 355/78/34
f 33/81/35 213/82/35 237/83/35
f 24/84/36 358/85/36 294/86/36
f 24/84/37 359/87/37 358/85/37
f 31/88/38 211/89/38 240/90/38
f 32/91/39 361/92/39 302/93/39
f 32/91/40 362/94/40 361/92/40
f 29/95/41 209/96/41 243/97/41
f 30/98/42 364/99/42 300/100/42
f 30/98/43 365/101/43 364/99/43
f 27/102/44 207/103/44 246/104/44
f 28/105/45 367/106/45 298/107/45
f 28/105/46 368/108/46 367/106/46
f 25/109/47 205/110/47 249/111/47
f 26/112/48 370/113/48 296/114/48
f 26/112/49 371/115/49 370/113/49
f 23/116/50 203/117/50 252/118/50
f 31/88/51 373/119/51 211/89/51
f 31/88/52 374/120/52 373/119/52
f 22/121/53 202/122/53 255/123/53
f 29/95/54 376/124/54 209/96/54
f 29/95/55 377/125/55 376/124/55
f 21/126/56 201/127/56 258/128/56
f 27/102/57 379/129/57 207/103/57
f 27/102/58 380/130/58 379/129/58
f 19/131/59 199/132/59 261/133/59
f 25/109/60 382/134/60 205/110/60
f 25/109/61 383/135/61 382/134/61
f 15/136/62 195/137/62 264/138/62
f 23/116/63 385/139/63 203/117/63
f 23/116/64 386/140/64 385/139/64
f 16/141/65 196/142/65 267/143/65
f 17/144/66 388/145/66 287/146/66
f 17/144/67 389/147/67 388/145/67
f 20/148/68 200/149/68 270/150/68
f 20/151/69 391/152/69 200/153/69
f 20/151/70 392/154/70 391/152/70
f 18/155/71 198/156/71 273/157/71
f 18/158/72 394/159/72 198/160/72
f 18/158/73 395/161/73 394/159/73
f 13/162/74 193/163/74 276/164/74
f 16/141/75 397/165/75 196/142/75
f 16/141/76 398/166/76 397/165/76
f 14/167/77 194/168/77 279/169/77
f 13/170/78 400/171/78 193/172/78
f 13/170/79 401/173/79 400/171/79
f 14/174/80 284/175/80 282/176/80
f 162/177/80 403/178/80 402/179/80
f 162/177/80 404/180/80 403/178/80
f 44/181/80 164/182/80 405/183/80
f 160/184/79 406/185/79 280/186/79
f 160/184/79 407/187/79 406/185/79
f 161/188/79 281/189/79 408/190/79
f 73/191/78 409/192/78 313/193/78
f 73/191/78 410/194/78 409/192/78
f 160/184/78 280/186/78 411/195/78
f 159/196/77 412/197/77 399/198/77
f 159/196/77 413/199/77 412/197/77
f 74/200/77 314/201/77 414/202/77
f 157/203/76 415/204/76 277/205/76
f 157/203/76 416/206/76 415/204/76
f 158/207/76 278/208/76 417/209/76
f 76/210/81 418/211/81 316/212/81
f 76/210/75 419/213/75 418/211/75
f 157/203/75 277/205/75 420/214/75
f 156/215/74 421/216/74 396/217/74
f 156/215/74 422/218/74 421/216/74
f 73/219/74 313/220/74 423/221/74
f 154/222/73 424/223/73 274/224/73
f 154/222/73 425/225/73 424/223/73
f 155/226/73 275/227/73 426/228/73
f 78/229/72 427/230/72 318/231/72
f 78/229/72 428/232/72 427/230/72
f 154/222/72 274/224/72 429/233/72
f 153/234/71 430/235/71 393/236/71
f 153/234/71 431/237/71 430/235/71
f 78/238/71 318/239/71 432/240/71
f 151/241/70 433/242/70 271/243/70
f 151/241/70 434/244/70 433/242/70
f 152/245/70 272/246/70 435/247/70
f 80/248/69 436/249/69 320/250/69
f 80/248/69 437/251/69 436/249/69
f 151/241/69 271/243/69 438/252/69
f 150/253/68 439/254/68 390/255/68
f 150/253/68 440/256/68 439/254/68
f 80/257/68 320/258/68 441/259/68
f 148/260/67 442/261/67 268/262/67
f 148/260/67 443/263/67 442/261/67
f 149/264/67 269/265/67 444/266/67
f 47/267/82 445/268/82 167/269/82
f 47/267/66 446/270/66 445/268/66
f 148/260/66 268/262/66 447/271/66
f 147/272/83 448/273/83 387/274/83
f 147/272/84 449/275/84 448/273/84
f 76/210/85 316/212/85 450/276/85
f 145/277/86 451/278/86 265/279/86
f 145/277/87 452/280/87 451/278/87
f 146/281/64 266/282/64 453/283/64
f 83/284/88 454/285/88 323/286/88
f 83/284/89 455/287/89 454/285/89
f 145/277/90 265/279/90 456/288/90
f 144/289/62 457/290/62 384/291/62
f 144/289/62 458/292/62 457/290/62
f 75/293/62 315/294/62 459/295/62
f 142/296/61 460/297/61 262/298/61
f 142/296/61 461/299/61 460/297/61
f 143/300/61 263/301/61 462/302/61
f 85/303/60 463/304/60 325/305/60
f 85/303/60 464/306/60 463/304/60
f 142/296/60 262/298/60 465/307/60
f 141/308/59 466/309/59 381/310/59
f 141/308/59 467/311/59 466/309/59
f 79/312/59 319/313/59 468/314/59
f 139/315/58 469/316/58 259/317/58
f 139/315/58 470/318/58 469/316/58
f 140/319/58 260/320/58 471/321/58
f 87/322/57 472/323/57 327/324/57
f 87/322/57 473/325/57 472/323/57
f 139/315/57 259/317/57 474/326/57
f 138/327/56 475/328/56 378/329/56
f 138/327/56 476/330/56 475/328/56
f 81/331/56 321/332/56 477/333/56
f 136/334/55 478/335/55 256/336/55
f 136/334/55 479/337/55 478/335/55
f 137/338/55 257/339/55 480/340/55
f 89/341/54 481/342/54 329/343/54
f 89/341/54 482/344/54 481/342/54
f 136/334/54 256/336/54 483/345/54
f 135/346/53 484/347/53 375/348/53
f 135/346/53 485/349/53 484/347/53
f 82/350/53 322/351/53 486/352/53
f 133/353/52 487/354/52 253/355/52
f 133/353/52 488/356/52 487/354/52
f 134/357/52 254/358/52 489/359/52
f 91/360/51 490/361/51 331/362/51
f 91/360/51 491/363/51 490/361/51
f 133/353/51 253/355/51 492/364/51
f 132/365/50 493/366/50 372/367/50
f 132/365/50 494/368/50 493/366/50
f 83/284/91 323/286/91 495/369/91
f 130/370/49 496/371/49 250/372/49
f 130/370/49 497/373/49 496/371/49
f 131/374/49 251/375/49 498/376/49
f 56/377/48 499/378/48 176/379/48
f 56/377/48 500/380/48 499/378/48
f 130/370/48 250/372/48 501/381/48
f 129/382/47 502/383/47 369/384/47
f 129/382/47 503/385/47 502/383/47
f 85/303/47 325/305/47 504/386/47
f 127/387/46 505/388/46 247/389/46
f 127/387/46 506/390/46 505/388/46
f 128/391/46 248/392/46 507/393/46
f 58/394/45 508/395/45 178/396/45
f 58/394/45 509/397/45 508/395/45
f 127/387/45 247/389/45 510/398/45
f 126/399/44 511/400/44 366/401/44
f 126/399/44 512/402/44 511/400/44
f 87/322/44 327/324/44 513/403/44
f 124/404/43 514/405/43 244/406/43
f 124/404/43 515/407/43 514/405/43
f 125/408/43 245/409/43 516/410/43
f 60/411/42 517/412/42 180/413/42
f 60/411/42 518/414/42 517/412/42
f 124/404/42 244/406/42 519/415/42
f 123/416/41 520/417/41 363/418/41
f 123/416/41 521/419/41 520/417/41
f 89/341/41 329/343/41 522/420/41
f 121/421/40 523/422/40 241/423/40
f 121/421/40 524/424/40 523/422/40
f 122/425/40 242/426/40 525/427/40
f 62/428/39 526/429/39 182/430/39
f 62/428/39 527/431/39 526/429/39
f 121/421/39 241/423/39 528/432/39
f 120/433/92 529/434/92 360/435/92
f 120/433/93 530/436/93 529/434/93
f 91/360/94 331/362/94 531/437/94
f 118/438/95 532/439/95 238/440/95
f 118/438/96 533/441/96 532/439/96
f 119/442/97 239/443/97 534/444/97
f 54/445/98 535/446/98 174/447/98
f 54/445/99 536/448/99 535/446/99
f 118/438/100 238/440/100 537/449/100
f 117/450/101 538/451/101 357/452/101
f 117/450/102 539/453/102 538/451/102
f 93/454/103 333/455/103 540/456/103
f 115/457/104 541/458/104 235/459/104
f 115/457/105 542/460/105 541/458/105
f 116/461/34 236/462/34 543/463/34
f 98/464/33 544/465/33 338/466/33
f 98/464/33 545/467/33 544/465/33
f 115/457/106 235/459/106 546/468/106
f 114/469/32 547/470/32 354/471/32
f 114/469/32 548/472/32 547/470/32
f 94/473/32 334/474/32 549/475/32
f 112/476/31 550/477/31 232/478/31
f 112/476/31 551/479/31 550/477/31
f 113/480/31 233/481/31 552/482/31
f 100/483/30 553/484/30 340/485/30
f 100/483/30 554/486/30 553/484/30
f 112/476/30 232/478/30 555/487/30
f 111/488/29 556/489/29 351/490/29
f 111/488/29 557/491/29 556/489/29
f 95/492/29 335/493/29 558/494/29
f 109/495/28 559/496/28 229/497/28
f 109/495/28 560/498/28 559/496/28
f 110/499/28 230/500/28 561/501/28
f 101/502/27 562/503/27 341/504/27
f 101/502/27 563/505/27 562/503/27
f 109/495/27 229/497/27 564/506/27
f 108/507/26 565/508/26 348/509/26
f 108/507/26 566/510/26 565/508/26
f 96/511/26 336/512/26 567/513/26
f 106/514/107 568/515/107 226/516/107
f 106/514/107 569/517/107 568/515/107
f 107/518/107 227/519/107 570/520/107
f 102/521/108 571/522/108 342/523/108
f 102/521/108 572/524/108 571/522/108
f 106/514/108 226/516/108 573/525/108
f 105/526/109 574/527/109 345/528/109
f 105/526/110 575/529/110 574/527/110
f 97/530/111 337/531/111 576/532/111
f 103/533/112 577/534/112 223/535/112
f 103/533/113 578/536/113 577/534/113
f 104/537/114 224/538/114 579/539/114
f 69/540/115 580/541/115 189/542/115
f 69/540/116 581/543/116 580/541/116
f 103/533/117 223/535/117 582/544/117
f 99/545/118 583/546/118 219/547/118
f 99/545/119 584/548/119 583/546/119
f 67/549/120 307/550/120 585/551/120
f 72/552/121 586/553/121 312/554/121
f 72/552/122 587/555/122 586/553/122
f 66/556/123 306/557/123 588/558/123
f 71/559/18 589/560/18 311/561/18
f 71/559/18 590/562/18 589/560/18
f 65/563/18 305/564/18 591/565/18
f 70/566/17 592/567/17 310/568/17
f 70/566/17 593/569/17 592/567/17
f 64/570/17 304/571/17 594/572/17
f 68/573/16 595/574/16 308/575/16
f 68/573/16 596/576/16 595/574/16
f 63/577/16 303/578/16 597/579/16
f 84/580/124 598/581/124 204/582/124
f 84/580/125 599/583/125 598/581/125
f 61/584/126 301/585/126 600/586/126
f 92/587/14 601/588/14 212/589/14
f 92/587/14 602/590/14 601/588/14
f 59/591/14 299/592/14 603/593/14
f 90/594/13 604/595/13 210/596/13
f 90/594/13 605/597/13 604/595/13
f 57/598/13 297/599/13 606/600/13
f 88/601/12 607/602/12 208/603/12
f 88/601/12 608/604/12 607/602/12
f 55/605/12 295/606/12 609/607/12
f 86/608/11 610/609/11 206/610/11
f 86/608/11 611/611/11 610/609/11
f 53/612/11 293/613/11 612/614/11
f 61/584/127 613/615/127 301/585/127
f 61/584/127 614/616/127 613/615/127
f 52/617/127 292/618/127 615/619/127
f 59/591/9 616/620/9 299/592/9
f 59/591/9 617/621/9 616/620/9
f 51/622/9 291/623/9 618/624/9
f 57/598/8 619/625/8 297/599/8
f 57/598/8 620/626/8 619/625/8
f 49/627/8 289/628/8 621/629/8
f 55/605/7 622/630/7 295/606/7
f 55/605/7 623/631/7 622/630/7
f 45/632/7 285/633/7 624/634/7
f 53/612/6 625/635/6 293/613/6
f 53/612/6 626/636/6 625/635/6
f 46/637/6 286/638/6 627/639/6
f 77/640/5 628/641/5 197/642/5
f 77/640/5 629/643/5 628/641/5
f 50/644/5 290/645/5 630/646/5
f 50/647/4 631/648/4 290/649/4
f 50/647/4 632/650/4 631/648/4
f 48/651/4 288/652/4 633/653/4
f 48/654/3 634/655/3 288/656/3
f 48/654/3 635/657/3 634/655/3
f 43/658/3 283/659/3 636/660/3
f 46/637/2 637/661/2 286/638/2
f 46/637/2 638/662/2 637/661/2
f 44/663/2 284/664/2 639/665/2
f 43/666/1 640/667/1 283/668/1
f 43/666/1 641/669/1 640/667/1
f 74/670/1 194/671/1 642/672/1
f 642/672/1 281/189/1 161/188/1
f 642/672/1 194/671/1 281/189/1
f 194/671/1 14/174/1 281/189/1
f 640/667/1 642/672/1 161/188/1
f 640/667/1 641/669/1 642/672/1
f 641/669/1 74/670/1 642/672/1
f 283/668/1 401/173/1 13/170/1
f 283/668/1 640/667/1 401/173/1
f 640/667/1 161/188/1 401/173/1
f 639/665/2 278/208/2 158/207/2
f 639/665/2 284/664/2 278/208/2
f 284/664/2 14/167/2 278/208/2
f 637/661/2 639/665/2 158/207/2
f 637/661/2 638/662/2 639/665/2
f 638/662/2 44/663/2 639/665/2
f 286/638/2 398/166/2 16/141/2
f 286/638/2 637/661/2 398/166/2
f 637/661/2 158/207/2 398/166/2
f 636/660/3 275/227/3 155/226/3
f 636/660/3 283/659/3 275/227/3
f 283/659/3 13/162/3 275/227/3
f 634/655/3 636/660/3 155/226/3
f 634/655/3 635/657/3 636/660/3
f 635/657/3 43/658/3 636/660/3
f 288/656/3 395/161/3 18/158/3
f 288/656/3 634/655/3 395/161/3
f 634/655/3 155/226/3 395/161/3
f 633/653/4 272/246/4 152/245/4
f 633/653/4 288/652/4 272/246/4
f 288/652/4 18/155/4 272/246/4
f 631/648/4 633/653/4 152/245/4
f 631/648/4 632/650/4 633/653/4
f 632/650/4 48/651/4 633/653/4
f 290/649/4 392/154/4 20/151/4
f 290/649/4 631/648/4 392/154/4
f 631/648/4 152/245/4 392/154/4
f 630/646/5 269/265/5 149/264/5
f 630/646/5 290/645/5 269/265/5
f 290/645/5 20/148/5 269/265/5
f 628/641/5 630/646/5 149/264/5
f 628/641/5 629/643/5 630/646/5
f 629/643/5 50/644/5 630/646/5
f 197/642/5 389/147/5 17/144/5
f 197/642/5 628/641/5 389/147/5
f 628/641/5 149/264/5 389/147/5
f 627/639/6 266/282/6 146/281/6
f 627/639/6 286/638/6 266/282/6
f 286/638/6 16/141/6 266/282/6
f 625/635/6 627/639/6 146/281/6
f 625/635/6 626/636/6 627/639/6
f 626/636/6 46/637/6 627/639/6
f 293/613/6 386/140/6 23/116/6
f 293/613/6 625/635/6 386/140/6
f 625/635/6 146/281/6 386/140/6
f 624/634/7 263/301/7 143/300/7
f 624/634/7 285/633/7 263/301/7
f 285/633/7 15/136/7 263/301/7
f 622/630/7 624/634/7 143/300/7
f 622/630/7 623/631/7 624/634/7
f 623/631/7 45/632/7 624/634/7
f 295/606/7 383/135/7 25/109/7
f 295/606/7 622/630/7 383/135/7
f 622/630/7 143/300/7 383/135/7
f 621/629/8 260/320/8 140/319/8
f 621/629/8 289/628/8 260/320/8
f 289/628/8 19/131/8 260/320/8
f 619/625/8 621/629/8 140/319/8
f 619/625/8 620/626/8 621/629/8
f 620/626/8 49/627/8 621/629/8
f 297/599/8 380/130/8 27/102/8
f 297/599/8 619/625/8 380/130/8
f 619/625/8 140/319/8 380/130/8
f 618/624/9 257/339/9 137/338/9
f 618/624/9 291/623/9 257/339/9
f 291/623/9 21/126/9 257/339/9
f 616/620/9 618/624/9 137/338/9
f 616/620/9 617/621/9 618/624/9
f 617/621/9 51/622/9 618/624/9
f 299/592/9 377/125/9 29/95/9
f 299/592/9 616/620/9 377/125/9
f 616/620/9 137/338/9 377/125/9
f 615/619/127 254/358/127 134/357/127
f 615/619/127 292/618/127 254/358/127
f 292/618/127 22/121/127 254/358/127
f 613/615/127 615/619/127 134/357/127
f 613/615/127 614/616/127 615/619/127
f 614/616/127 52/617/127 615/619/127
f 301/585/127 374/120/127 31/88/127
f 301/585/127 613/615/127 374/120/127
f 613/615/127 134/357/127 374/120/127
f 612/614/11 251/375/11 131/374/11
f 612/614/11 293/613/11 251/375/11
f 293/613/11 23/116/11 251/375/11
f 610/609/11 612/614/11 131/374/11
f 610/609/11 611/611/11 612/614/11
f 611/611/11 53/612/11 612/614/11
f 206/610/11 371/115/11 26/112/11
f 206/610/11 610/609/11 371/115/11
f 610/609/11 131/374/11 371/115/11
f 609/607/12 248/392/12 128/391/12
f 609/607/12 295/606/12 248/392/12
f 295/606/12 25/109/12 248/392/12
f 607/602/12 609/607/12 128/391/12
f 607/602/12 608/604/12 609/607/12
f 608/604/12 55/605/12 609/607/12
f 208/603/12 368/108/12 28/105/12
f 208/603/12 607/602/12 368/108/12
f 607/602/12 128/391/12 368/108/12
f 606/600/13 245/409/13 125/408/13
f 606/600/13 297/599/13 245/409/13
f 297/599/13 27/102/13 245/409/13
f 604/595/13 606/600/13 125/408/13
f 604/595/13 605/597/13 606/600/13
f 605/597/13 57/598/13 606/600/13
f 210/596/13 365/101/13 30/98/13
f 210/596/13 604/595/13 365/101/13
f 604/595/13 125/408/13 365/101/13
f 603/593/14 242/426/14 122/425/14
f 603/593/14 299/592/14 242/426/14
f 299/592/14 29/95/14 242/426/14
f 601/588/14 603/593/14 122/425/14
f 601/588/14 602/590/14 603/593/14
f 602/590/14 59/591/14 603/593/14
f 212/589/14 362/94/14 32/91/14
f 212/589/14 601/588/14 362/94/14
f 601/588/14 122/425/14 362/94/14
f 600/586/126 239/443/126 119/442/126
f 600/586/126 301/585/126 239/443/126
f 301/585/126 31/88/126 239/443/126
f 598/581/128 600/586/128 119/442/128
f 598/581/129 599/583/129 600/586/129
f 599/583/126 61/584/126 600/586/126
f 204/582/130 359/87/130 24/84/130
f 204/582/131 598/581/131 359/87/131
f 598/581/132 119/442/132 359/87/132
f 597/579/16 236/462/16 116/461/16
f 597/579/16 303/578/16 236/462/16
f 303/578/16 33/81/16 236/462/16
f 595/574/16 597/579/16 116/461/16
f 595/574/16 596/576/16 597/579/16
f 596/576/16 63/577/16 597/579/16
f 308/575/16 356/80/16 38/77/16
f 308/575/16 595/574/16 356/80/16
f 595/574/16 116/461/16 356/80/16
f 594/572/17 233/481/17 113/480/17
f 594/572/17 304/571/17 233/481/17
f 304/571/17 34/74/17 233/481/17
f 592/567/17 594/572/17 113/480/17
f 592/567/17 593/569/17 594/572/17
f 593/569/17 64/570/17 594/572/17
f 310/568/17 353/73/17 40/70/17
f 310/568/17 592/567/17 353/73/17
f 592/567/17 113/480/17 353/73/17
f 591/565/18 230/500/18 110/499/18
f 591/565/18 305/564/18 230/500/18
f 305/564/18 35/67/18 230/500/18
f 589/560/18 591/565/18 110/499/18
f 589/560/18 590/562/18 591/565/18
f 590/562/18 65/563/18 591/565/18
f 311/561/18 350/66/18 41/63/18
f 311/561/18 589/560/18 350/66/18
f 589/560/18 110/499/18 350/66/18
f 588/558/123 227/519/123 107/518/123
f 588/558/123 306/557/123 227/519/123
f 306/557/123 36/60/123 227/519/123
f 586/553/123 588/558/123 107/518/123
f 586/553/123 587/555/123 588/558/123
f 587/555/123 66/556/123 588/558/123
f 312/554/133 347/59/133 42/56/133
f 312/554/134 586/553/134 347/59/134
f 586/553/123 107/518/123 347/59/123
f 585/551/135 224/538/135 104/537/135
f 585/551/136 307/550/136 224/538/136
f 307/550/137 37/53/137 224/538/137
f 583/546/138 585/551/138 104/537/138
f 583/546/139 584/548/139 585/551/139
f 584/548/140 67/549/140 585/551/140
f 219/547/141 344/52/141 39/49/141
f 219/547/142 583/546/142 344/52/142
f 583/546/143 104/537/143 344/52/143
f 582/544/144 222/673/144 102/674/144
f 582/544/145 223/535/145 222/673/145
f 223/535/146 42/675/146 222/673/146
f 580/541/147 582/544/147 102/674/147
f 580/541/148 581/543/148 582/544/148
f 581/543/149 103/533/149 582/544/149
f 189/542/150 342/676/150 12/677/150
f 189/542/151 580/541/151 342/676/151
f 580/541/152 102/674/152 342/676/152
f 579/539/153 225/55/153 105/526/153
f 579/539/154 224/538/154 225/55/154
f 224/538/155 37/53/155 225/55/155
f 577/534/156 579/539/156 105/526/156
f 577/534/157 578/536/157 579/539/157
f 578/536/158 104/537/158 579/539/158
f 223/535/159 345/528/159 42/675/159
f 223/535/160 577/534/160 345/528/160
f 577/534/161 105/526/161 345/528/161
f 576/532/162 192/678/162 72/679/162
f 576/532/163 337/531/163 192/678/163
f 337/531/164 10/43/164 192/678/164
f 574/527/165 576/532/165 72/679/165
f 574/527/166 575/529/166 576/532/166
f 575/529/167 97/530/167 576/532/167
f 345/528/168 312/680/168 42/675/168
f 345/528/169 574/527/169 312/680/169
f 574/527/170 72/679/170 312/680/170
f 573/525/108 221/681/108 101/682/108
f 573/525/108 226/516/108 221/681/108
f 226/516/108 41/683/108 221/681/108
f 571/522/108 573/525/108 101/682/108
f 571/522/108 572/524/108 573/525/108
f 572/524/108 106/514/108 573/525/108
f 342/523/108 341/684/108 12/685/108
f 342/523/108 571/522/108 341/684/108
f 571/522/108 101/682/108 341/684/108
f 570/520/107 228/62/107 108/507/107
f 570/520/107 227/519/107 228/62/107
f 227/519/107 36/60/107 228/62/107
f 568/515/107 570/520/107 108/507/107
f 568/515/107 569/517/107 570/520/107
f 569/517/107 107/518/107 570/520/107
f 226/516/107 348/509/107 41/683/107
f 226/516/107 568/515/107 348/509/107
f 568/515/107 108/507/107 348/509/107
f 567/513/26 191/686/26 71/687/26
f 567/513/26 336/512/26 191/686/26
f 336/512/26 9/40/26 191/686/26
f 565/508/26 567/513/26 71/687/26
f 565/508/26 566/510/26 567/513/26
f 566/510/26 96/511/26 567/513/26
f 348/509/26 311/688/26 41/683/26
f 348/509/26 565/508/26 311/688/26
f 565/508/26 71/687/26 311/688/26
f 564/506/27 220/689/27 100/690/27
f 564/506/27 229/497/27 220/689/27
f 229/497/27 40/691/27 220/689/27
f 562/503/27 564/506/27 100/690/27
f 562/503/27 563/505/27 564/506/27
f 563/505/27 109/495/27 564/506/27
f 341/504/27 340/692/27 12/693/27
f 341/504/27 562/503/27 340/692/27
f 562/503/27 100/690/27 340/692/27
f 561/501/28 231/69/28 111/488/28
f 561/501/28 230/500/28 231/69/28
f 230/500/28 35/67/28 231/69/28
f 559/496/28 561/501/28 111/488/28
f 559/496/28 560/498/28 561/501/28
f 560/498/28 110/499/28 561/501/28
f 229/497/28 351/490/28 40/691/28
f 229/497/28 559/496/28 351/490/28
f 559/496/28 111/488/28 351/490/28
f 558/494/29 190/694/29 70/695/29
f 558/494/29 335/493/29 190/694/29
f 335/493/29 8/696/29 190/694/29
f 556/489/29 558/494/29 70/695/29
f 556/489/29 557/491/29 558/494/29
f 557/491/29 95/492/29 558/494/29
f 351/490/29 310/697/29 40/691/29
f 351/490/29 556/489/29 310/697/29
f 556/489/29 70/695/29 310/697/29
f 555/487/30 218/698/30 98/699/30
f 555/487/30 232/478/30 218/698/30
f 232/478/30 38/700/30 218/698/30
f 553/484/30 555/487/30 98/699/30
f 553/484/30 554/486/30 555/487/30
f 554/486/30 112/476/30 555/487/30
f 340/485/30 338/701/30 12/702/30
f 340/485/30 553/484/30 338/701/30
f 553/484/30 98/699/30 338/701/30
f 552/482/31 234/76/31 114/469/31
f 552/482/31 233/481/31 234/76/31
f 233/481/31 34/74/31 234/76/31
f 550/477/31 552/482/31 114/469/31
f 550/477/31 551/479/31 552/482/31
f 551/479/31 113/480/31 552/482/31
f 232/478/31 354/471/31 38/700/31
f 232/478/31 550/477/31 354/471/31
f 550/477/31 114/469/31 354/471/31
f 549/475/32 188/703/32 68/704/32
f 549/475/32 334/474/32 188/703/32
f 334/474/32 7/34/32 188/703/32
f 547/470/32 549/475/32 68/704/32
f 547/470/32 548/472/32 549/475/32
f 548/472/32 94/473/32 549/475/32
f 354/471/32 308/705/32 38/700/32
f 354/471/32 547/470/32 308/705/32
f 547/470/32 68/704/32 308/705/32
f 546/468/171 309/706/171 69/707/171
f 546/468/172 235/459/172 309/706/172
f 235/459/173 39/708/173 309/706/173
f 544/465/174 546/468/174 69/707/174
f 544/465/33 545/467/33 546/468/33
f 545/467/33 115/457/33 546/468/33
f 338/466/33 189/709/33 12/710/33
f 338/466/33 544/465/33 189/709/33
f 544/465/175 69/707/175 189/709/175
f 543/463/176 237/83/176 117/450/176
f 543/463/34 236/462/34 237/83/34
f 236/462/34 33/81/34 237/83/34
f 541/458/177 543/463/177 117/450/177
f 541/458/178 542/460/178 543/463/178
f 542/460/34 116/461/34 543/463/34
f 235/459/179 357/452/179 39/708/179
f 235/459/180 541/458/180 357/452/180
f 541/458/181 117/450/181 357/452/181
f 540/456/182 339/711/182 99/712/182
f 540/456/183 333/455/183 339/711/183
f 333/455/184 11/46/184 339/711/184
f 538/451/185 540/456/185 99/712/185
f 538/451/186 539/453/186 540/456/186
f 539/453/187 93/454/187 540/456/187
f 357/452/188 219/713/188 39/708/188
f 357/452/189 538/451/189 219/713/189
f 538/451/190 99/712/190 219/713/190
f 537/449/191 307/550/191 67/549/191
f 537/449/192 238/440/192 307/550/192
f 238/440/193 37/53/193 307/550/193
f 535/446/194 537/449/194 67/549/194
f 535/446/195 536/448/195 537/449/195
f 536/448/196 118/438/196 537/449/196
f 174/447/197 187/47/197 11/46/197
f 174/447/198 535/446/198 187/47/198
f 535/446/199 67/549/199 187/47/199
f 534/444/200 240/90/200 120/433/200
f 534/444/201 239/443/201 240/90/201
f 239/443/202 31/88/202 240/90/202
f 532/439/203 534/444/203 120/433/203
f 532/439/204 533/441/204 534/444/204
f 533/441/205 119/442/205 534/444/205
f 238/440/206 360/435/206 37/53/206
f 238/440/207 532/439/207 360/435/207
f 532/439/208 120/433/208 360/435/208
f 531/437/209 337/531/209 97/530/209
f 531/437/210 331/362/210 337/531/210
f 331/362/211 10/43/211 337/531/211
f 529/434/212 531/437/212 97/530/212
f 529/434/213 530/436/213 531/437/213
f 530/436/214 91/360/214 531/437/214
f 360/435/215 217/54/215 37/53/215
f 360/435/216 529/434/216 217/54/216
f 529/434/217 97/530/217 217/54/217
f 528/432/39 306/557/39 66/556/39
f 528/432/39 241/423/39 306/557/39
f 241/423/39 36/60/39 306/557/39
f 526/429/39 528/432/39 66/556/39
f 526/429/39 527/431/39 528/432/39
f 527/431/39 121/421/39 528/432/39
f 182/430/39 186/44/39 10/43/39
f 182/430/39 526/429/39 186/44/39
f 526/429/39 66/556/39 186/44/39
f 525/427/40 243/97/40 123/416/40
f 525/427/40 242/426/40 243/97/40
f 242/426/40 29/95/40 243/97/40
f 523/422/40 525/427/40 123/416/40
f 523/422/40 524/424/40 525/427/40
f 524/424/40 122/425/40 525/427/40
f 241/423/40 363/418/40 36/60/40
f 241/423/40 523/422/40 363/418/40
f 523/422/40 123/416/40 363/418/40
f 522/420/41 336/512/41 96/511/41
f 522/420/41 329/343/41 336/512/41
f 329/343/41 9/40/41 336/512/41
f 520/417/41 522/420/41 96/511/41
f 520/417/41 521/419/41 522/420/41
f 521/419/41 89/341/41 522/420/41
f 363/418/41 216/61/41 36/60/41
f 363/418/41 520/417/41 216/61/41
f 520/417/41 96/511/41 216/61/41
f 519/415/42 305/564/42 65/563/42
f 519/415/42 244/406/42 305/564/42
f 244/406/42 35/67/42 305/564/42
f 517/412/42 519/415/42 65/563/42
f 517/412/42 518/414/42 519/415/42
f 518/414/42 124/404/42 519/415/42
f 180/413/42 185/41/42 9/40/42
f 180/413/42 517/412/42 185/41/42
f 517/412/42 65/563/42 185/41/42
f 516/410/43 246/104/43 126/399/43
f 516/410/43 245/409/43 246/104/43
f 245/409/43 27/102/43 246/104/43
f 514/405/43 516/410/43 126/399/43
f 514/405/43 515/407/43 516/410/43
f 515/407/43 125/408/43 516/410/43
f 244/406/43 366/401/43 35/67/43
f 244/406/43 514/405/43 366/401/43
f 514/405/43 126/399/43 366/401/43
f 513/403/44 335/493/44 95/492/44
f 513/403/44 327/324/44 335/493/44
f 327/324/44 8/696/44 335/493/44
f 511/400/44 513/403/44 95/492/44
f 511/400/44 512/402/44 513/403/44
f 512/402/44 87/322/44 513/403/44
f 366/401/44 215/68/44 35/67/44
f 366/401/44 511/400/44 215/68/44
f 511/400/44 95/492/44 215/68/44
f 510/398/45 304/571/45 64/570/45
f 510/398/45 247/389/45 304/571/45
f 247/389/45 34/74/45 304/571/45
f 508/395/45 510/398/45 64/570/45
f 508/395/45 509/397/45 510/398/45
f 509/397/45 127/387/45 510/398/45
f 178/396/45 184/38/45 8/37/45
f 178/396/45 508/395/45 184/38/45
f 508/395/45 64/570/45 184/38/45
f 507/393/46 249/111/46 129/382/46
f 507/393/46 248/392/46 249/111/46
f 248/392/46 25/109/46 249/111/46
f 505/388/46 507/393/46 129/382/46
f 505/388/46 506/390/46 507/393/46
f 506/390/46 128/391/46 507/393/46
f 247/389/46 369/384/46 34/74/46
f 247/389/46 505/388/46 369/384/46
f 505/388/46 129/382/46 369/384/46
f 504/386/47 334/474/47 94/473/47
f 504/386/47 325/305/47 334/474/47
f 325/305/47 7/34/47 334/474/47
f 502/383/47 504/386/47 94/473/47
f 502/383/47 503/385/47 504/386/47
f 503/385/47 85/303/47 504/386/47
f 369/384/47 214/75/47 34/74/47
f 369/384/47 502/383/47 214/75/47
f 502/383/47 94/473/47 214/75/47
f 501/381/48 303/578/48 63/577/48
f 501/381/48 250/372/48 303/578/48
f 250/372/48 33/81/48 303/578/48
f 499/378/48 501/381/48 63/577/48
f 499/378/48 500/380/48 501/381/48
f 500/380/48 130/370/48 501/381/48
f 176/379/48 183/35/48 7/34/48
f 176/379/48 499/378/48 183/35/48
f 499/378/48 63/577/48 183/35/48
f 498/376/49 252/118/49 132/365/49
f 498/376/49 251/375/49 252/118/49
f 251/375/49 23/116/49 252/118/49
f 496/371/49 498/376/49 132/365/49
f 496/371/49 497/373/49 498/376/49
f 497/373/49 131/374/49 498/376/49
f 250/372/49 372/367/49 33/81/49
f 250/372/49 496/371/49 372/367/49
f 496/371/49 132/365/49 372/367/49
f 495/369/218 333/455/218 93/454/218
f 495/369/219 323/286/219 333/455/219
f 323/286/220 11/46/220 333/455/220
f 493/366/50 495/369/50 93/454/50
f 493/366/50 494/368/50 495/369/50
f 494/368/50 83/284/50 495/369/50
f 372/367/50 213/82/50 33/81/50
f 372/367/50 493/366/50 213/82/50
f 493/366/50 93/454/50 213/82/50
f 492/364/51 302/93/51 62/428/51
f 492/364/51 253/355/51 302/93/51
f 253/355/51 32/91/51 302/93/51
f 490/361/51 492/364/51 62/428/51
f 490/361/51 491/363/51 492/364/51
f 491/363/51 133/353/51 492/364/51
f 331/362/51 182/430/51 10/43/51
f 331/362/51 490/361/51 182/430/51
f 490/361/51 62/428/51 182/430/51
f 489/359/52 255/123/52 135/346/52
f 489/359/52 254/358/52 255/123/52
f 254/358/52 22/121/52 255/123/52
f 487/354/52 489/359/52 135/346/52
f 487/354/52 488/356/52 489/359/52
f 488/356/52 134/357/52 489/359/52
f 253/355/52 375/348/52 32/91/52
f 253/355/52 487/354/52 375/348/52
f 487/354/52 135/346/52 375/348/52
f 486/352/53 332/32/53 92/587/53
f 486/352/53 322/351/53 332/32/53
f 322/351/53 5/23/53 332/32/53
f 484/347/53 486/352/53 92/587/53
f 484/347/53 485/349/53 486/352/53
f 485/349/53 82/350/53 486/352/53
f 375/348/53 212/589/53 32/91/53
f 375/348/53 484/347/53 212/589/53
f 484/347/53 92/587/53 212/589/53
f 483/345/54 300/100/54 60/411/54
f 483/345/54 256/336/54 300/100/54
f 256/336/54 30/98/54 300/100/54
f 481/342/54 483/345/54 60/411/54
f 481/342/54 482/344/54 483/345/54
f 482/344/54 136/334/54 483/345/54
f 329/343/54 180/413/54 9/40/54
f 329/343/54 481/342/54 180/413/54
f 481/342/54 60/411/54 180/413/54
f 480/340/55 258/128/55 138/327/55
f 480/340/55 257/339/55 258/128/55
f 257/339/55 21/126/55 258/128/55
f 478/335/55 480/340/55 138/327/55
f 478/335/55 479/337/55 480/340/55
f 479/337/55 137/338/55 480/340/55
f 256/336/55 378/329/55 30/98/55
f 256/336/55 478/335/55 378/329/55
f 478/335/55 138/327/55 378/329/55
f 477/333/56 330/31/56 90/594/56
f 477/333/56 321/332/56 330/31/56
f 321/332/56 4/20/56 330/31/56
f 475/328/56 477/333/56 90/594/56
f 475/328/56 476/330/56 477/333/56
f 476/330/56 81/331/56 477/333/56
f 378/329/56 210/596/56 30/98/56
f 378/329/56 475/328/56 210/596/56
f 475/328/56 90/594/56 210/596/56
f 474/326/57 298/714/57 58/715/57
f 474/326/57 259/317/57 298/714/57
f 259/317/57 28/716/57 298/714/57
f 472/323/57 474/326/57 58/715/57
f 472/323/57 473/325/57 474/326/57
f 473/325/57 139/315/57 474/326/57
f 327/324/57 178/717/57 8/696/57
f 327/324/57 472/323/57 178/717/57
f 472/323/57 58/715/57 178/717/57
f 471/321/58 261/133/58 141/308/58
f 471/321/58 260/320/58 261/133/58
f 260/320/58 19/131/58 261/133/58
f 469/316/58 471/321/58 141/308/58
f 469/316/58 470/318/58 471/321/58
f 470/318/58 140/319/58 471/321/58
f 259/317/58 381/310/58 28/716/58
f 259/317/58 469/316/58 381/310/58
f 469/316/58 141/308/58 381/310/58
f 468/314/59 328/718/59 88/719/59
f 468/314/59 319/313/59 328/718/59
f 319/313/59 3/720/59 328/718/59
f 466/309/59 468/314/59 88/719/59
f 466/309/59 467/311/59 468/314/59
f 467/311/59 79/312/59 468/314/59
f 381/310/59 208/721/59 28/716/59
f 381/310/59 466/309/59 208/721/59
f 466/309/59 88/719/59 208/721/59
f 465/307/60 296/114/60 56/377/60
f 465/307/60 262/298/60 296/114/60
f 262/298/60 26/112/60 296/114/60
f 463/304/60 465/307/60 56/377/60
f 463/304/60 464/306/60 465/307/60
f 464/306/60 142/296/60 465/307/60
f 325/305/60 176/379/60 7/34/60
f 325/305/60 463/304/60 176/379/60
f 463/304/60 56/377/60 176/379/60
f 462/302/61 264/138/61 144/289/61
f 462/302/61 263/301/61 264/138/61
f 263/301/61 15/136/61 264/138/61
f 460/297/61 462/302/61 144/289/61
f 460/297/61 461/299/61 462/302/61
f 461/299/61 143/300/61 462/302/61
f 262/298/61 384/291/61 26/112/61
f 262/298/61 460/297/61 384/291/61
f 460/297/61 144/289/61 384/291/61
f 459/295/62 326/29/62 86/608/62
f 459/295/62 315/294/62 326/29/62
f 315/294/62 2/4/62 326/29/62
f 457/290/62 459/295/62 86/608/62
f 457/290/62 458/292/62 459/295/62
f 458/292/62 75/293/62 459/295/62
f 384/291/62 206/610/62 26/112/62
f 384/291/62 457/290/62 206/610/62
f 457/290/62 86/608/62 206/610/62
f 456/288/221 294/86/221 54/445/221
f 456/288/222 265/279/222 294/86/222
f 265/279/223 24/84/223 294/86/223
f 454/285/224 456/288/224 54/445/224
f 454/285/225 455/287/225 456/288/225
f 455/287/226 145/277/226 456/288/226
f 323/286/227 174/447/227 11/46/227
f 323/286/228 454/285/228 174/447/228
f 454/285/229 54/445/229 174/447/229
f 453/283/230 267/143/230 147/272/230
f 453/283/64 266/282/64 267/143/64
f 266/282/64 16/141/64 267/143/64
f 451/278/231 453/283/231 147/272/231
f 451/278/232 452/280/232 453/283/232
f 452/280/64 146/281/64 453/283/64
f 265/279/233 387/274/233 24/84/233
f 265/279/234 451/278/234 387/274/234
f 451/278/235 147/272/235 387/274/235
f 450/276/236 324/33/236 84/580/236
f 450/276/237 316/212/237 324/33/237
f 316/212/238 6/26/238 324/33/238
f 448/273/239 450/276/239 84/580/239
f 448/273/240 449/275/240 450/276/240
f 449/275/241 76/210/241 450/276/241
f 387/274/242 204/582/242 24/84/242
f 387/274/243 448/273/243 204/582/243
f 448/273/244 84/580/244 204/582/244
f 447/271/66 292/618/66 52/617/66
f 447/271/66 268/262/66 292/618/66
f 268/262/66 22/121/66 292/618/66
f 445/268/66 447/271/66 52/617/66
f 445/268/66 446/270/66 447/271/66
f 446/270/66 148/260/66 447/271/66
f 167/269/245 172/27/245 6/26/245
f 167/269/246 445/268/246 172/27/246
f 445/268/66 52/617/66 172/27/66
f 444/266/67 270/150/67 150/253/67
f 444/266/67 269/265/67 270/150/67
f 269/265/67 20/148/67 270/150/67
f 442/261/67 444/266/67 150/253/67
f 442/261/67 443/263/67 444/266/67
f 443/263/67 149/264/67 444/266/67
f 268/262/67 390/255/67 22/121/67
f 268/262/67 442/261/67 390/255/67
f 442/261/67 150/253/67 390/255/67
f 441/259/68 322/351/68 82/350/68
f 441/259/68 320/258/68 322/351/68
f 320/258/68 5/23/68 322/351/68
f 439/254/68 441/259/68 82/350/68
f 439/254/68 440/256/68 441/259/68
f 440/256/68 80/257/68 441/259/68
f 390/255/68 202/122/68 22/121/68
f 390/255/68 439/254/68 202/122/68
f 439/254/68 82/350/68 202/122/68
f 438/252/69 291/623/69 51/622/69
f 438/252/69 271/243/69 291/623/69
f 271/243/69 21/126/69 291/623/69
f 436/249/69 438/252/69 51/622/69
f 436/249/69 437/251/69 438/252/69
f 437/251/69 151/241/69 438/252/69
f 320/250/69 171/24/69 5/23/69
f 320/250/69 436/249/69 171/24/69
f 436/249/69 51/622/69 171/24/69
f 435/247/70 273/157/70 153/234/70
f 435/247/70 272/246/70 273/157/70
f 272/246/70 18/155/70 273/157/70
f 433/242/70 435/247/70 153/234/70
f 433/242/70 434/244/70 435/247/70
f 434/244/70 152/245/70 435/247/70
f 271/243/70 393/236/70 21/126/70
f 271/243/70 433/242/70 393/236/70
f 433/242/70 153/234/70 393/236/70
f 432/240/71 321/332/71 81/331/71
f 432/240/71 318/239/71 321/332/71
f 318/239/71 4/20/71 321/332/71
f 430/235/71 432/240/71 81/331/71
f 430/235/71 431/237/71 432/240/71
f 431/237/71 78/238/71 432/240/71
f 393/236/71 201/127/71 21/126/71
f 393/236/71 430/235/71 201/127/71
f 430/235/71 81/331/71 201/127/71
f 429/233/72 289/628/72 49/627/72
f 429/233/72 274/224/72 289/628/72
f 274/224/72 19/131/72 289/628/72
f 427/230/72 429/233/72 49/627/72
f 427/230/72 428/232/72 429/233/72
f 428/232/72 154/222/72 429/233/72
f 318/231/72 169/21/72 4/20/72
f 318/231/72 427/230/72 169/21/72
f 427/230/72 49/627/72 169/21/72
f 426/228/73 276/164/73 156/215/73
f 426/228/73 275/227/73 276/164/73
f 275/227/73 13/162/73 276/164/73
f 424/223/73 426/228/73 156/215/73
f 424/223/73 425/225/73 426/228/73
f 425/225/73 155/226/73 426/228/73
f 274/224/73 396/217/73 19/131/73
f 274/224/73 424/223/73 396/217/73
f 424/223/73 156/215/73 396/217/73
f 423/221/74 319/313/74 79/312/74
f 423/221/74 313/220/74 319/313/74
f 313/220/74 3/720/74 319/313/74
f 421/216/74 423/221/74 79/312/74
f 421/216/74 422/218/74 423/221/74
f 422/218/74 73/219/74 423/221/74
f 396/217/74 199/132/74 19/131/74
f 396/217/74 421/216/74 199/132/74
f 421/216/74 79/312/74 199/132/74
f 420/214/75 287/722/75 47/723/75
f 420/214/75 277/205/75 287/722/75
f 277/205/75 17/724/75 287/722/75
f 418/211/75 420/214/75 47/723/75
f 418/211/75 419/213/75 420/214/75
f 419/213/75 157/203/75 420/214/75
f 316/212/247 167/725/247 6/26/247
f 316/212/248 418/211/248 167/725/248
f 418/211/249 47/723/249 167/725/249
f 417/209/76 279/169/76 159/196/76
f 417/209/76 278/208/76 279/169/76
f 278/208/76 14/167/76 279/169/76
f 415/204/76 417/209/76 159/196/76
f 415/204/76 416/206/76 417/209/76
f 416/206/76 158/207/76 417/209/76
f 277/205/76 399/198/76 17/724/76
f 277/205/76 415/204/76 399/198/76
f 415/204/76 159/196/76 399/198/76
f 414/202/77 317/726/77 77/727/77
f 414/202/77 314/201/77 317/726/77
f 314/201/77 1/728/77 317/726/77
f 412/197/77 414/202/77 77/727/77
f 412/197/77 413/199/77 414/202/77
f 413/199/77 74/200/77 414/202/77
f 399/198/77 197/729/77 17/724/77
f 399/198/77 412/197/77 197/729/77
f 412/197/77 77/727/77 197/729/77
f 411/195/78 285/633/78 45/632/78
f 411/195/78 280/186/78 285/633/78
f 280/186/78 15/136/78 285/633/78
f 409/192/78 411/195/78 45/632/78
f 409/192/78 410/194/78 411/195/78
f 410/194/78 160/184/78 411/195/78
f 313/193/78 165/18/78 3/17/78
f 313/193/78 409/192/78 165/18/78
f 409/192/78 45/632/78 165/18/78
f 408/190/79 282/176/79 162/177/79
f 408/190/79 281/189/79 282/176/79
f 281/189/79 14/174/79 282/176/79
f 406/185/79 408/190/79 162/177/79
f 406/185/79 407/187/79 408/190/79
f 407/187/79 161/188/79 408/190/79
f 280/186/79 402/179/79 15/136/79
f 280/186/79 406/185/79 402/179/79
f 406/185/79 162/177/79 402/179/79
f 405/183/80 315/294/80 75/293/80
f 405/183/80 164/182/80 315/294/80
f 164/182/80 2/4/80 315/294/80
f 403/178/80 405/183/80 75/293/80
f 403/178/80 404/180/80 405/183/80
f 404/180/80 44/181/80 405/183/80
f 402/179/80 195/137/80 15/136/80
f 402/179/80 403/178/80 195/137/80
f 403/178/80 75/293/80 195/137/80
f 282/176/80 404/180/80 162/177/80
f 282/176/80 284/175/80 404/180/80
f 284/175/80 44/181/80 404/180/80
f 400/171/79 407/187/79 160/184/79
f 400/171/79 401/173/79 407/187/79
f 401/173/79 161/188/79 407/187/79
f 193/172/78 410/194/78 73/191/78
f 193/172/78 400/171/78 410/194/78
f 400/171/78 160/184/78 410/194/78
f 279/169/77 413/199/77 159/196/77
f 279/169/77 194/168/77 413/199/77
f 194/168/77 74/200/77 413/199/77
f 397/165/76 416/206/76 157/203/76
f 397/165/76 398/166/76 416/206/76
f 398/166/76 158/207/76 416/206/76
f 196/142/75 419/213/75 76/210/75
f 196/142/75 397/165/75 419/213/75
f 397/165/75 157/203/75 419/213/75
f 276/164/74 422/218/74 156/215/74
f 276/164/74 193/163/74 422/218/74
f 193/163/74 73/219/74 422/218/74
f 394/159/73 425/225/73 154/222/73
f 394/159/73 395/161/73 425/225/73
f 395/161/73 155/226/73 425/225/73
f 198/160/72 428/232/72 78/229/72
f 198/160/72 394/159/72 428/232/72
f 394/159/72 154/222/72 428/232/72
f 273/157/71 431/237/71 153/234/71
f 273/157/71 198/156/71 431/237/71
f 198/156/71 78/238/71 431/237/71
f 391/152/70 434/244/70 151/241/70
f 391/152/70 392/154/70 434/244/70
f 392/154/70 152/245/70 434/244/70
f 200/153/69 437/251/69 80/248/69
f 200/153/69 391/152/69 437/251/69
f 391/152/69 151/241/69 437/251/69
f 270/150/68 440/256/68 150/253/68
f 270/150/68 200/149/68 440/256/68
f 200/149/68 80/257/68 440/256/68
f 388/145/67 443/263/67 148/260/67
f 388/145/67 389/147/67 443/263/67
f 389/147/67 149/264/67 443/263/67
f 287/146/66 446/270/66 47/267/66
f 287/146/66 388/145/66 446/270/66
f 388/145/66 148/260/66 446/270/66
f 267/143/250 449/275/250 147/272/250
f 267/143/251 196/142/251 449/275/251
f 196/142/252 76/210/252 449/275/252
f 385/139/253 452/280/253 145/277/253
f 385/139/64 386/140/64 452/280/64
f 386/140/64 146/281/64 452/280/64
f 203/117/254 455/287/254 83/284/254
f 203/117/255 385/139/255 455/287/255
f 385/139/256 145/277/256 455/287/256
f 264/138/62 458/292/62 144/289/62
f 264/138/62 195/137/62 458/292/62
f 195/137/62 75/293/62 458/292/62
f 382/134/61 461/299/61 142/296/61
f 382/134/61 383/135/61 461/299/61
f 383/135/61 143/300/61 461/299/61
f 205/110/60 464/306/60 85/303/60
f 205/110/60 382/134/60 464/306/60
f 382/134/60 142/296/60 464/306/60
f 261/133/59 467/311/59 141/308/59
f 261/133/59 199/132/59 467/311/59
f 199/132/59 79/312/59 467/311/59
f 379/129/58 470/318/58 139/315/58
f 379/129/58 380/130/58 470/318/58
f 380/130/58 140/319/58 470/318/58
f 207/103/57 473/325/57 87/322/57
f 207/103/57 379/129/57 473/325/57
f 379/129/57 139/315/57 473/325/57
f 258/128/56 476/330/56 138/327/56
f 258/128/56 201/127/56 476/330/56
f 201/127/56 81/331/56 476/330/56
f 376/124/55 479/337/55 136/334/55
f 376/124/55 377/125/55 479/337/55
f 377/125/55 137/338/55 479/337/55
f 209/96/54 482/344/54 89/341/54
f 209/96/54 376/124/54 482/344/54
f 376/124/54 136/334/54 482/344/54
f 255/123/53 485/349/53 135/346/53
f 255/123/53 202/122/53 485/349/53
f 202/122/53 82/350/53 485/349/53
f 373/119/52 488/356/52 133/353/52
f 373/119/52 374/120/52 488/356/52
f 374/120/52 134/357/52 488/356/52
f 211/89/51 491/363/51 91/360/51
f 211/89/51 373/119/51 491/363/51
f 373/119/51 133/353/51 491/363/51
f 252/118/50 494/368/50 132/365/50
f 252/118/50 203/117/50 494/368/50
f 203/117/50 83/284/50 494/368/50
f 370/113/49 497/373/49 130/370/49
f 370/113/49 371/115/49 497/373/49
f 371/115/49 131/374/49 497/373/49
f 296/114/48 500/380/48 56/377/48
f 296/114/48 370/113/48 500/380/48
f 370/113/48 130/370/48 500/380/48
f 249/111/47 503/385/47 129/382/47
f 249/111/47 205/110/47 503/385/47
f 205/110/47 85/303/47 503/385/47
f 367/106/46 506/390/46 127/387/46
f 367/106/46 368/108/46 506/390/46
f 368/108/46 128/391/46 506/390/46
f 298/107/45 509/397/45 58/394/45
f 298/107/45 367/106/45 509/397/45
f 367/106/45 127/387/45 509/397/45
f 246/104/44 512/402/44 126/399/44
f 246/104/44 207/103/44 512/402/44
f 207/103/44 87/322/44 512/402/44
f 364/99/43 515/407/43 124/404/43
f 364/99/43 365/101/43 515/407/43
f 365/101/43 125/408/43 515/407/43
f 300/100/42 518/414/42 60/411/42
f 300/100/42 364/99/42 518/414/42
f 364/99/42 124/404/42 518/414/42
f 243/97/41 521/419/41 123/416/41
f 243/97/41 209/96/41 521/419/41
f 209/96/41 89/341/41 521/419/41
f 361/92/40 524/424/40 121/421/40
f 361/92/40 362/94/40 524/424/40
f 362/94/40 122/425/40 524/424/40
f 302/93/39 527/431/39 62/428/39
f 302/93/39 361/92/39 527/431/39
f 361/92/39 121/421/39 527/431/39
f 240/90/257 530/436/257 120/433/257
f 240/90/38 211/89/38 530/436/38
f 211/89/38 91/360/38 530/436/38
f 358/85/258 533/441/258 118/438/258
f 358/85/259 359/87/259 533/441/259
f 359/87/260 119/442/260 533/441/260
f 294/86/261 536/448/261 54/445/261
f 294/86/262 358/85/262 536/448/262
f 358/85/263 118/438/263 536/448/263
f 237/83/264 539/453/264 117/450/264
f 237/83/265 213/82/265 539/453/265
f 213/82/266 93/454/266 539/453/266
f 355/78/34 542/460/34 115/457/34
f 355/78/34 356/80/34 542/460/34
f 356/80/34 116/461/34 542/460/34
f 218/79/33 545/467/33 98/464/33
f 218/79/33 355/78/33 545/467/33
f 355/78/33 115/457/33 545/467/33
f 234/76/32 548/472/32 114/469/32
f 234/76/32 214/75/32 548/472/32
f 214/75/32 94/473/32 548/472/32
f 352/71/31 551/479/31 112/476/31
f 352/71/31 353/73/31 551/479/31
f 353/73/31 113/480/31 551/479/31
f 220/72/30 554/486/30 100/483/30
f 220/72/30 352/71/30 554/486/30
f 352/71/30 112/476/30 554/486/30
f 231/69/29 557/491/29 111/488/29
f 231/69/29 215/68/29 557/491/29
f 215/68/29 95/492/29 557/491/29
f 349/64/28 560/498/28 109/495/28
f 349/64/28 350/66/28 560/498/28
f 350/66/28 110/499/28 560/498/28
f 221/65/27 563/505/27 101/502/27
f 221/65/27 349/64/27 563/505/27
f 349/64/27 109/495/27 563/505/27
f 228/62/26 566/510/26 108/507/26
f 228/62/26 216/61/26 566/510/26
f 216/61/26 96/511/26 566/510/26
f 346/57/107 569/517/107 106/514/107
f 346/57/107 347/59/107 569/517/107
f 347/59/107 107/518/107 569/517/107
f 222/58/267 572/524/267 102/521/267
f 222/58/268 346/57/268 572/524/268
f 346/57/108 106/514/108 572/524/108
f 225/55/269 575/529/269 105/526/269
f 225/55/270 217/54/270 575/529/270
f 217/54/271 97/530/271 575/529/271
f 343/50/272 578/536/272 103/533/272
f 343/50/273 344/52/273 578/536/273
f 344/52/274 104/537/274 578/536/274
f 309/51/275 581/543/275 69/540/275
f 309/51/276 343/50/276 581/543/276
f 343/50/277 103/533/277 581/543/277
f 339/48/278 584/548/278 99/545/278
f 339/48/279 187/47/279 584/548/279
f 187/47/280 67/549/280 584/548/280
f 192/45/281 587/555/281 72/552/281
f 192/45/282 186/44/282 587/555/282
f 186/44/123 66/556/123 587/555/123
f 191/42/18 590/562/18 71/559/18
f 191/42/18 185/41/18 590/562/18
f 185/41/18 65/563/18 590/562/18
f 190/39/17 593/569/17 70/566/17
f 190/39/17 184/38/17 593/569/17
f 184/38/17 64/570/17 593/569/17
f 188/36/16 596/576/16 68/573/16
f 188/36/16 183/35/16 596/576/16
f 183/35/16 63/577/16 596/576/16
f 324/33/283 599/583/283 84/580/283
f 324/33/284 181/28/284 599/583/284
f 181/28/285 61/584/285 599/583/285
f 332/32/14 602/590/14 92/587/14
f 332/32/14 179/25/14 602/590/14
f 179/25/14 59/591/14 602/590/14
f 330/31/13 605/597/13 90/594/13
f 330/31/13 177/22/13 605/597/13
f 177/22/13 57/598/13 605/597/13
f 328/30/12 608/604/12 88/601/12
f 328/30/12 175/19/12 608/604/12
f 175/19/12 55/605/12 608/604/12
f 326/29/11 611/611/11 86/608/11
f 326/29/11 173/16/11 611/611/11
f 173/16/11 53/612/11 611/611/11
f 181/28/286 614/616/286 61/584/286
f 181/28/287 172/27/287 614/616/287
f 172/27/127 52/617/127 614/616/127
f 179/25/9 617/621/9 59/591/9
f 179/25/9 171/24/9 617/621/9
f 171/24/9 51/622/9 617/621/9
f 177/22/8 620/626/8 57/598/8
f 177/22/8 169/21/8 620/626/8
f 169/21/8 49/627/8 620/626/8
f 175/19/7 623/631/7 55/605/7
f 175/19/7 165/18/7 623/631/7
f 165/18/7 45/632/7 623/631/7
f 173/16/6 626/636/6 53/612/6
f 173/16/6 166/6/6 626/636/6
f 166/6/6 46/637/6 626/636/6
f 317/15/5 629/643/5 77/640/5
f 317/15/5 170/14/5 629/643/5
f 170/14/5 50/644/5 629/643/5
f 170/12/4 632/650/4 50/647/4
f 170/12/4 168/11/4 632/650/4
f 168/11/4 48/651/4 632/650/4
f 168/9/3 635/657/3 48/654/3
f 168/9/3 163/8/3 635/657/3
f 163/8/3 43/658/3 635/657/3
f 166/6/2 638/662/2 46/637/2
f 166/6/2 164/5/2 638/662/2
f 164/5/2 44/663/2 638/662/2
f 163/3/1 641/669/1 43/666/1
f 163/3/1 314/2/1 641/669/1
f 314/2/1 74/670/1 641/669/1
